<?xml version="1.0" standalone="no"?>
<!DOCTYPE svg PUBLIC "-//W3C//DTD SVG 1.1//EN" "http://www.w3.org/Graphics/SVG/1.1/DTD/svg11.dtd" >
<svg xmlns="http://www.w3.org/2000/svg">
<metadata>
This is a custom SVG webfont generated by Font Squirrel.
Copyright   : Kingthings Petrock Kevin King 2006 All Rights Reserved
Designer    : Kevin King Exeter England
Foundry     : kevinkingmypostofficecouk
</metadata>
<defs>
<font id="KingthingsPetrockRegular" horiz-adv-x="910" >
<font-face units-per-em="2048" ascent="1638" descent="-410" />
<missing-glyph horiz-adv-x="382" />
<glyph unicode=" "  horiz-adv-x="382" />
<glyph unicode="&#x09;" horiz-adv-x="382" />
<glyph unicode="&#xa0;" horiz-adv-x="382" />
<glyph unicode="!" horiz-adv-x="376" d="M47 1281q25 -131 55 -973l232 151l7 795q-22 186 -101 198zM105 117l5 -257l226 126v294z" />
<glyph unicode="&#x22;" horiz-adv-x="698" d="M14 1226q-4 -8 -4 -15q0 -9 8 -17q105 -88 105 -166q0 -49 -41 -94q-9 -30 24 -36q243 117 243 260q0 102 -123 216h-20zM354 1226q-4 -8 -4 -15q0 -9 8 -17q105 -88 105 -166q0 -49 -41 -94q-9 -30 24 -36q243 117 243 260q0 102 -123 216h-20z" />
<glyph unicode="#" horiz-adv-x="1004" d="M20 402h226l-81 -350l147 59l68 291h179l-81 -350l150 64l65 286h157l58 142h-183l45 223h165l58 143h-191l74 341l-145 -59l-62 -282l-179 -1l72 342l-151 -58l-55 -284h-188l-63 -142h219l-46 -223h-195zM412 544l45 223h179l-45 -223h-179z" />
<glyph unicode="$" horiz-adv-x="987" d="M25 398q-7 -19 -7 -39q0 -62 58 -139q78 -103 184 -154q63 -32 144 -48l-1 -360l157 -99v450q93 13 151 65q85 74 175 217q87 137 87 226v8q-4 91 -79 179q-74 85 -335 144v262q4 -2 8 -3q109 -43 109 -88q0 -11 -6 -22l23 -4l159 157q-49 92 -141 137q-59 29 -137 29 h-15v385l-150 109l-2 -539q-44 -19 -96 -46q-96 -60 -149 -120t-68 -184q-2 -19 -2 -37q0 -101 69 -175q66 -72 245 -105v-355q-80 26 -138 93.5t-70 107.5q-4 14 -4 28q0 23 12 44l-17 23zM260 1002q-1 12 -1 22q0 89 104 112q21 4 44 6l-1 -242q-131 44 -146 102zM560 214 v343q174 -48 214 -93q39 -59 39 -106q0 -14 -3 -27q-16 -57 -72 -91q-46 -28 -134 -28q-21 0 -44 2z" />
<glyph unicode="%" horiz-adv-x="1148" d="M29 900q12 -95 92 -184t128 -89t151 115q40 43 70.5 92.5t44.5 139.5q4 24 4 50q0 70 -28 150q-86 161 -214 161q-15 0 -30 -2q-106 -84 -150 -147t-62 -126q-11 -39 -11 -88q0 -33 5 -72zM135 1120q10 87 92 87h10q90 -5 138 -117q31 -72 31 -147q0 -42 -10 -85 q-20 -90 -77 -90q-19 0 -42 10q-92 41 -122 146q-23 77 -23 147q0 25 3 49zM225 -167l63 -13q53 111 203 244q99 516 426 1417l-52 -14l-188 -188q-153 -635 -452 -1446zM643 270q12 -96 92 -185t128 -89t151 115q40 43 70.5 92.5t44.5 139.5q4 24 4 50q0 70 -28 150 q-86 161 -214 161q-15 0 -30 -2q-106 -84 -150 -147t-62 -127q-11 -38 -11 -87q0 -33 5 -71zM749 490q10 86 92 86h10q90 -5 138 -117q31 -72 31 -147q0 -42 -10 -85q-20 -90 -77 -90q-19 0 -42 11q-92 40 -122 145q-23 77 -23 147q0 25 3 50z" />
<glyph unicode="&#x26;" horiz-adv-x="1221" d="M44 343q4 -129 98 -230.5t309 -115.5q152 197 172 209q106 -142 260 -213h7q109 0 285 346l-28 27q-27 -61 -92 -93h-11q-112 0 -249 167l337 472l-9 18l-345 -1l-153 -250l22 -25q33 42 144 42q44 0 100 -7q-126 -180 -149 -210q-404 502 -431 552q-20 36 -20 78 q0 15 3 31q10 58 68 75q16 5 34 5q42 0 87 -29q63 -41 71 -149q1 -10 1 -20q0 -96 -75 -167l24 -32q209 117 213 251v15q0 122 -64 181q-68 62 -162 63h-1q-94 0 -228 -109q-135 -109 -145 -240q-1 -10 -1 -20q0 -122 115 -255q-187 -232 -187 -361v-5zM275 657l312 -414 q-54 -32 -112 -32q-84 0 -176 69q-85 62 -85 167q0 90 61 210z" />
<glyph unicode="'" horiz-adv-x="361" d="M14 1236q-10 -19 4 -32q171 -143 64 -260q-9 -30 24 -36q416 201 120 476h-20z" />
<glyph unicode="(" horiz-adv-x="446" d="M52 791q-10 -92 -10 -190q0 -195 43 -411q65 -326 176 -556l192 94q-238 401 -251 919v55q0 488 211 926l-13 45q-131 -212 -223 -409t-125 -473z" />
<glyph unicode=")" horiz-adv-x="452" d="M27 1556q212 -379 225 -897v-55q0 -488 -211 -926l13 -45q131 212 223 409t125 473q10 92 10 190q0 195 -43 412q-65 325 -176 555z" />
<glyph unicode="*" horiz-adv-x="553" d="M31 1079l151 12l-93 -72l23 -103l119 125l-11 -132l96 -42l-14 176l125 -131l23 99l-98 80l127 -1l43 89l-177 -19l85 83l-22 81l-105 -108l11 155l-86 -45l5 -113l-102 115l-26 -80l83 -88h-116z" />
<glyph unicode="+" horiz-adv-x="911" d="M53 562l147 158l176 -4l-1 204l162 136l9 -22q-32 -27 -32 -276v-44h32q271 0 298 33l22 -9l-136 -162l-217 6v-192l-152 -147l-15 11q26 26 26 204q0 53 -2 118q-35 1 -66 1q-210 0 -240 -30z" />
<glyph unicode="," horiz-adv-x="359" d="M14 166q-10 -19 4 -32q171 -143 64 -260q-9 -30 24 -36q416 201 120 476h-20z" />
<glyph unicode="-" horiz-adv-x="852" d="M43 562l10 -15q33 34 632 29l129 162l-21 9q-27 -35 -611 -27z" />
<glyph unicode="." horiz-adv-x="349" d="M8 155q98 -81 141 -171l199 134q-52 152 -165 190z" />
<glyph unicode="/" horiz-adv-x="564" d="M-3 -302l69 -7q45 129 192 293q47 584 296 1620l-54 -21l-182 -230q-92 -721 -321 -1655z" />
<glyph unicode="0" horiz-adv-x="898" d="M29 506q20 -181 158 -349q137 -169 219.5 -169t258.5 218q69 83 120.5 176t76.5 264q6 46 6 94q0 133 -49 286q-146 305 -364 305q-25 0 -52 -4q-182 -159 -257.5 -278.5t-105.5 -240.5q-19 -73 -19 -168q0 -62 8 -134zM210 924q18 164 159 164h15q155 -9 238 -222 q52 -137 52 -279q0 -80 -16 -161q-34 -170 -132 -170q-32 0 -72 19q-158 76 -210 276q-39 147 -39 279q0 48 5 94z" />
<glyph unicode="1" horiz-adv-x="449" d="M10 1044l33 -32l80 64q25 -106 13.5 -554.5t98.5 -532.5q65 79 174 151q-78 122 -62 1173l-39 18z" />
<glyph unicode="2" horiz-adv-x="917" d="M15 48l46 -50q48 15 162 15q88 0 217 -9q74 -5 133 -5q176 0 220 46q58 63 103 258l-25 12q-48 -75 -195 -75q-36 0 -78 5q-132 14 -223 14q-55 0 -94 -5l474 619q48 63 48 145q0 64 -29 138q-68 171 -268 180h-26q-183 0 -296 -115q-121 -123 -136 -269q-3 -21 -3 -42 q0 -119 76 -214l196 186q-85 100 -85 186q0 20 5 39q20 86 94 86q15 0 33 -4q102 -21 200 -137q53 -62 53 -139q0 -66 -38 -142l-106 -135z" />
<glyph unicode="3" horiz-adv-x="969" d="M65 236q120 -189 282 -234q57 -15 107 -15q91 0 157 52q102 81 231 249q107 141 107 321q0 36 -4 74q-28 133 -128 195q-80 80 -170 80h-11l250 325l-22 37h-651l-135 -202l15 -28l537 1l-261 -299l32 -36q41 12 78 12q68 0 121 -40q81 -61 149 -218q25 -58 25 -108 q0 -87 -75 -152q-72 -61 -141 -61q-46 0 -90 26q-113 67 -214 166q-49 47 -49 106q0 66 60 147l-32 25q-204 -165 -204 -308q0 -59 36 -115z" />
<glyph unicode="4" horiz-adv-x="1041" d="M31 263l36 -40q58 34 421 42q-4 -48 -4 -90q0 -194 84 -259l210 126q-83 67 -83 210v20l208 -1l114 155l-17 32l-299 -2q10 70 10 132q0 157 -65 255l-189 -129q38 -92 38 -173q0 -44 -11 -85l-299 5q374 543 374 707q0 12 -2 22q-28 147 -94 155l-209 -187 q33 -19 33 -90q0 -199 -256 -805z" />
<glyph unicode="5" horiz-adv-x="945" d="M31 257q124 -225 289 -251q70 -12 124 -12q72 0 116 21q75 35 149 132l159 216q56 77 56 172q0 51 -16 108q-47 161 -208 265q-99 64 -223 64q-76 0 -162 -24l1 187l387 3l166 148l-21 36l-509 -3l-200 -231l-20 -379l34 -18q99 83 201 83q95 0 193 -73 q227 -173 227 -306q0 -134 -103 -187q-48 -25 -103 -25q-63 0 -137 32q-138 60 -187 128q-26 35 -26 80q0 41 21 90l-39 13z" />
<glyph unicode="6" horiz-adv-x="884" d="M35 443q12 -152 88.5 -248t167.5 -147.5t165 -55.5h9q68 0 124 53q58 57 110 130t129 223q42 81 42 159q0 66 -30 131q-66 139 -175 192q-41 21 -89 21q-80 0 -179 -55q-159 -89 -221 -243v41q0 227 63 334q69 115 122 134q46 16 116 16h23q86 -3 124 -93l148 161v6 q0 70 -96 108q-54 23 -111 23q-45 0 -92 -15q-104 -33 -236.5 -204t-172.5 -345q-32 -133 -32 -255q0 -36 3 -71zM196 543q102 124 227 156q21 5 40 5q101 0 184 -136q65 -108 65 -193q0 -43 -17 -81q-43 -94 -127 -94q-14 0 -30 3q-107 19 -206.5 114t-135.5 226z" />
<glyph unicode="7" horiz-adv-x="811" d="M-3 1077l13 -35q119 72 571 44q-249 -571 -283.5 -778t93.5 -332l157 218q-59 107 -62.5 212.5t42.5 239.5t264 652l-19 19l-624 5z" />
<glyph unicode="8" horiz-adv-x="835" d="M34 338q12 -148 150 -259q115 -93 258 -93q28 0 57 4q188 224 261 329q52 74 52 162q0 35 -8 72q-29 129 -249 258q177 147 177 281q0 34 -11 67q-57 162 -223 179q-21 2 -40 2q-134 0 -194 -104l-126 -214q-40 -66 -40 -126q0 -28 9 -55q28 -84 144 -165 q-217 -181 -217 -324v-14zM246 390q-24 57 -24 108q0 83 65 146q223 -119 304 -208q56 -62 56 -118q0 -25 -11 -49q-28 -61 -120 -61q-28 0 -61 6q-145 23 -209 176zM360 1138q10 0 21 -1q133 -7 186 -113q18 -34 18 -65q0 -65 -78 -116q-59 28 -160 88q-100 58 -100 134 q0 73 113 73z" />
<glyph unicode="9" horiz-adv-x="882" d="M49 904q-12 -53 -12 -102q0 -81 31 -154q51 -119 181 -179q56 -26 109 -26q72 0 140 47q119 81 166 224q9 -88 9 -159q0 -134 -33 -210q-50 -117 -103 -133q-22 -7 -49 -7q-37 0 -84 13q-80 23 -118 98l-160 -186v-6q0 -70 96 -108q55 -23 116 -23q48 0 98 13 q116 32 243 216t155 355q14 86 14 167q0 77 -14 148q-26 145 -102.5 241t-146 146t-127.5 54h-7q-56 0 -130 -49q-79 -52 -160 -147.5t-112 -232.5zM184 1036q39 103 160 103h3q123 -2 199.5 -111t100.5 -278q-47 -87 -192 -104q-15 -2 -29 -2q-124 0 -199 137 q-56 102 -56 182q0 39 13 73z" />
<glyph unicode=":" horiz-adv-x="364" d="M16 545q92 -77 140 -167q168 112 189 140q8 11 8 28q0 26 -19 66q-31 66 -119 93zM26 145q92 -77 140 -167q168 112 189 140q8 11 8 28q0 26 -19 66q-31 66 -119 93z" />
<glyph unicode=";" horiz-adv-x="370" d="M16 545q92 -77 140 -167q168 112 189 140q8 11 8 28q0 26 -19 66q-31 66 -119 93zM33 180q-4 -8 -4 -15q0 -9 8 -17q89 -92 89 -171q0 -55 -44 -103q-9 -30 24 -36q243 117 243 260q0 102 -123 216h-20z" />
<glyph unicode="&#x3c;" horiz-adv-x="660" d="M24 649l452 -392l116 143l-380 325l415 297l-33 49l-569 -387z" />
<glyph unicode="=" horiz-adv-x="868" d="M53 462l10 -15q29 30 488 30q67 0 144 -1l129 162l-21 9q-22 -28 -413 -28q-89 0 -198 1zM53 672l10 -15q29 30 488 30q67 0 144 -1l129 162l-21 9q-22 -28 -413 -28q-89 0 -198 1z" />
<glyph unicode="&#x3e;" horiz-adv-x="662" d="M23 306l33 -49l569 387l1 35l-452 392l-116 -143l380 -325z" />
<glyph unicode="?" horiz-adv-x="850" d="M0 1088l207 -152l8 15l136 185q37 22 74 22q48 0 96 -36q86 -64 90 -170q1 -2 1 -5q0 -102 -151 -173q-155 -73 -160 -165l7 -298l235 161l2 255q231 112 267 250q11 44 11 85q0 86 -51 158q-76 104 -188 119q-32 4 -59 4q-68 0 -107 -27q-53 -38 -119 -116l-150 89z M309 206l1 -226l236 133l5 248z" />
<glyph unicode="@" horiz-adv-x="1280" d="M50 532q-10 -51 -10 -103q0 -89 31 -179q50 -140 187 -254q120 -100 201 -100q12 0 24 3q87 17 327 262l-46 26q-91 -91 -185 -91q-79 0 -160 64q-174 138 -174 324v7q3 190 68.5 313.5t177.5 163.5q87 31 187 31q28 0 58 -2q133 -12 212 -76.5t110 -228.5q10 -52 10 -96 q0 -95 -46 -151q-34 -44 -67 -44q-30 0 -60 38q-53 69 -53 391q0 42 1 89l-271 3q-213 -168 -242 -332q-6 -38 -6 -74q0 -115 71 -197q73 -84 130 -84q17 0 33 8q69 31 151 124q34 -122 163 -122h10q337 172 374 365q13 61 13 118q0 121 -55 221q-79 147 -245 201 q-95 32 -186 32q-65 0 -128 -16q-149 -40 -257.5 -125t-213.5 -226t-134 -283zM468 516q-3 30 -3 57q0 110 51 187h155q-4 -83 -4 -145q0 -145 21 -185q-60 -18 -103 -18q-106 0 -117 104z" />
<glyph unicode="A" horiz-adv-x="1128" d="M22 43l15 -45l324 1l144 189l-15 18l-247 1q72 36 146 204l198 2l100 107q131 -372 191 -445.5t126 -89.5l155 182q-118 27 -287 562.5t-201 575.5t-81 40q-2 0 -2 -1q-51 0 -82 -23t-214 -258l42 -32q60 76 100 99q9 5 17 6q27 0 41 -66l-153 -442h-92l-204 -201l19 -32 q80 18 144 18q19 0 37 -2q-50 -136 -94 -215.5t-127 -152.5zM459 621l98 287l99 -288z" />
<glyph unicode="B" horiz-adv-x="912" d="M27 1169l12 -42q5 2 9 2q56 0 56 -293q0 -58 -2 -127q-15 -224 -15 -355q0 -102 9 -148q21 -105 175 -184q69 -35 138 -35q84 0 168 52q152 95 207.5 162.5t75 126.5t22.5 150v9q0 87 -55 197q-58 116 -252 142q183 131 183 264q0 19 -3 38q-31 153 -141 188 q-58 18 -103 18q-43 0 -75 -15q-68 -32 -129 -96q-29 82 -96 107zM319 637q39 99 126 109q7 1 14 1q79 0 152 -105q68 -98 67 -205q0 -17 -1 -35q-12 -126 -73 -203q-39 -50 -89 -50q-27 0 -56 15q-84 42 -124 134q-25 57 -25 174q-1 71 9 165zM323 782l4 366q24 54 77 54 q16 0 35 -5q81 -21 109 -135q9 -36 9 -72q0 -78 -42 -154h-5q-134 0 -187 -54z" />
<glyph unicode="C" horiz-adv-x="928" d="M37 716q-10 -67 -10 -127q0 -109 32 -196q50 -136 137 -236t214 -142q60 -20 117 -20q65 0 128 25q119 47 250 221l-42 41q-76 -85 -175 -85q-78 0 -170 54q-208 120 -273 358q-32 117 -31 215q0 102 33 182q66 159 214 162h12q139 0 184 -70q27 -42 26 -76 q0 -26 -15 -47l31 -16l180 151q6 15 6 31q0 47 -50 109q-67 82 -215 86q-9 0 -16 1q-136 0 -233 -54q-102 -57 -204.5 -218.5t-129.5 -348.5z" />
<glyph unicode="D" horiz-adv-x="1027" d="M22 1155l15 -34q12 4 23 4q59 0 81 -104l-2 -633q1 -172 82 -273t223 -117q27 -3 50 -4q105 0 168 58q76 72 146.5 168t130.5 222q57 119 57 326v24q-3 224 -190 437q-81 93 -226 113l-202 -219q-16 144 -131 216zM374 433l3 598q62 76 121 82h7q57 0 144 -89 q93 -96 130 -342q10 -64 10 -126q0 -181 -79 -355q-56 -38 -113 -39q-48 0 -98 28q-110 58 -125 243z" />
<glyph unicode="E" horiz-adv-x="942" d="M40 288q59 -229 431 -294q392 205 447 409q13 47 13 89q0 142 -144 231l-185 -235q126 -100 126 -178q0 -14 -4 -28q-25 -79 -137 -79q-13 0 -26 1q-135 10 -262 136q-76 75 -76 173q0 65 34 141q57 -23 136 -31l197 208l-18 22q-228 0 -286 58q-50 50 -50 127q0 12 1 26 q9 94 105 113q30 6 58 6q64 0 125 -29q76 -37 76 -99q0 -9 -2 -19l22 -15l169 183q-15 41 -75.5 87t-139.5 48q-10 0 -20 1q-67 0 -123 -15q-63 -17 -163.5 -90.5t-172.5 -221.5q-21 -43 -21 -88q0 -111 126 -238q-170 -145 -170 -317q0 -40 9 -82z" />
<glyph unicode="F" horiz-adv-x="784" d="M13 1125l16 -32q77 58 79 -62l-1 -866q11 -150 156 -175l161 157q-88 73 -84 201v328l227 4l127 169l-25 25h-221l-102 -141l1 370l301 -1l168 186l-7 35h-351l-127 -181q0 149 -108 191z" />
<glyph unicode="G" horiz-adv-x="1024" d="M43 448q35 -136 101 -224t150.5 -153t186.5 -78q8 -1 16 -1q96 0 215 143q17 -124 109 -149l186 169l-21 32q-13 -9 -24 -9q-25 0 -40 49l-7 466q-3 16 -3 29q0 44 34 61l-26 24l-367 1l-138 -228l25 -21q21 39 151 39q47 0 107 -5l2 -367q-244 19 -375 203t-134 330v17 q0 133 44 211q46 83 144 125q46 20 95 20q56 0 117 -26q88 -37 88 -85q0 -14 -7 -29l22 -19l215 150q-76 134 -147 175t-165 41q-1 0 -2 -1q-95 0 -168 -44.5t-139.5 -117.5t-137.5 -181.5t-106 -259.5q-18 -76 -18 -148q0 -71 17 -139z" />
<glyph unicode="H" horiz-adv-x="1006" d="M36 1203q27 -47 32 -126q-4 -346 -4 -569q0 -354 10 -397q18 -69 103 -111l236 167l-16 43q-11 -3 -21 -3q-36 0 -53 43q-16 43 -16 284q0 69 1 154l345 1q-1 -114 -1 -206q0 -322 13 -377q18 -69 103 -112l236 167l-16 43q-11 -3 -20 -3q-37 0 -54 44q-13 35 -13 419 q0 219 4 552q-14 79 -67 116l-211 -135q27 -46 32 -126l1 -231l-274 1l-78 -91l6 472q-14 79 -67 116z" />
<glyph unicode="I" horiz-adv-x="448" d="M27 1168l14 -29q52 17 57 -69q-11 -899 6.5 -968.5t102.5 -112.5l213 168l-33 31q-36 -3 -57 52.5t-9 975.5q-14 79 -67 116z" />
<glyph unicode="J" horiz-adv-x="921" d="M21 389q48 -207 171 -296.5t312 -97.5q287 210 348 407l-4 736q-1 18 -1 34q0 91 42 123l-15 29h-584l-167 -220l19 -27q66 44 340 44q66 0 144 -3l-1 -747q1 -35 1 -63q0 -97 -13 -123q-103 10 -204 55.5t-165 136.5q-33 48 -33 115q0 60 27 135l-30 5z" />
<glyph unicode="K" horiz-adv-x="995" d="M15 1158l4 -25q51 -14 63 -109v-820q10 -101 64 -154t89 -54q196 129 206 132l-18 37q-90 1 -92 81l-2 378h7q119 0 326 -514q63 -123 172 -123h4l165 155l-15 37q-5 -1 -11 -1q-94 0 -198 270q-110 285 -248 329q265 223 266 408q0 80 -50 152l-215 -173q39 -60 39 -123 q0 -155 -238 -323l-14 472q-9 89 -94 143z" />
<glyph unicode="L" horiz-adv-x="858" d="M16 1179l14 -28q54 2 60 -141l1 -795q1 -169 91 -220l182 130q79 56 148.5 -31t156.5 -102l197 153l-19 33q-49 0 -70 26l-77 92q-57 66 -155 52l-199 -167q-19 62 -17 120l-2 803q-11 175 -112 220z" />
<glyph unicode="M" horiz-adv-x="1543" d="M29 1065l24 -47q77 65 68 -133q-10 -623 3.5 -719t100.5 -169l215 216v34q-80 -18 -91 134.5t1 551.5q133 167 225 119t91 -351q-6 -432 1.5 -535t89.5 -179l208 222l-5 33q-82 -24 -62 720q125 138 217 90t91 -351q-6 -432 1.5 -535t89.5 -179l213 228l-5 33 q-54 -23 -70.5 130t-5.5 456q7 185 -22 297t-123.5 163.5t-175.5 -3t-133.5 -115t-86.5 -111.5q-50 178 -144.5 229.5t-175.5 -3t-133.5 -115t-80.5 -105.5q9 177 -71 252z" />
<glyph unicode="N" horiz-adv-x="1048" d="M19 1067l25 -48q80 65 71 -132q-10 -625 4 -721t105 -169l226 213v34q-72 -21 -90 135t-10 498l374 -590q-1 -51 9.5 -136t81.5 -155l219 225l-5 34q-57 -24 -72.5 131t-4.5 458v137l2 196q0 91 -64 159l-246 -249l16 -47q72 37 63 -87l-1 -412l-373 605q19 103 -65 179z " />
<glyph unicode="O" horiz-adv-x="948" d="M29 506q21 -180 168 -349t235 -169t276 217q73 83 128 176t81 264q7 46 7 94q0 133 -52 286q-156 305 -388 305q-27 0 -56 -4q-194 -159 -274.5 -278.5t-113.5 -240.5q-20 -73 -19 -167q-1 -62 8 -134zM222 924q19 164 169 164h17q165 -9 253 -222q57 -136 57 -279 q0 -79 -18 -161q-37 -170 -140 -171q-35 0 -78 20q-168 75 -224 275q-41 146 -41 279q0 49 5 95z" />
<glyph unicode="P" horiz-adv-x="940" d="M23 619q31 -33 88 -79q-7 -120 -7 -212q0 -203 35 -266q51 -92 138 -117l183 192l-19 35q-12 -5 -22 -5q-76 0 -76 263v12q33 -13 70 -13q68 0 151 44q129 68 225.5 173t120.5 225q6 29 6 59q0 97 -58 212q-76 150 -301 193l-201 -192q-2 110 -84 178l-228 -195l10 -33 q11 10 20 10q41 0 41 -208q0 -84 -7 -203zM356 711l1 347l75 58q146 -17 223 -172q50 -101 50 -183q0 -43 -14 -79q-38 -98 -136 -98q-9 0 -17 1q-113 9 -182 126z" />
<glyph unicode="Q" horiz-adv-x="1145" d="M46 483q28 -227 218 -419q79 -79 168 -79q125 0 272 159l119 -199q59 -108 121 -109l258 246l-26 49q-48 -40 -90 -40q-37 0 -69 32l-129 216q122 266 122 419q0 17 -1 33q-15 157 -87.5 287t-162 186t-167.5 66q-11 1 -22 1q-68 0 -142 -49q-85 -57 -145 -124l-107 -122 q-47 -56 -103 -190q-36 -90 -36 -220q0 -66 9 -143zM246 606q-23 80 -23 159q0 102 37 204q34 136 108 173q31 14 65 14q48 0 103 -30q93 -53 180.5 -187.5t120.5 -269.5q14 -56 14 -107q0 -72 -27 -135q-80 114 -177 114q-125 0 -279 -187q-70 73 -122 252zM415 293 q66 43 111 43q22 0 39 -10q53 -30 110 -131q-36 -8 -68 -8q-118 0 -192 106z" />
<glyph unicode="R" horiz-adv-x="1000" d="M24 1165l4 -23q51 -15 63 -109v-820q10 -101 58 -154t83 -54q196 129 206 132l-18 38q-90 1 -92 80l1 358q13 4 27 4q156 0 303 -498q63 -123 172 -123h4l182 178l-15 36q-21 -11 -42 -11q-95 0 -166 243q-85 289 -256 289h-7q204 56 258 183q29 69 29 139q0 59 -21 119 q-46 130 -214 156q-21 3 -42 4q-138 0 -216 -158q-18 112 -103 159zM327 684v408q51 55 113 55q37 0 78 -19q88 -41 88 -134q0 -22 -5 -48q-27 -131 -121 -176z" />
<glyph unicode="S" horiz-adv-x="888" d="M25 398q-4 -18 -4 -37q0 -64 49 -142q63 -101 177 -168q90 -53 193 -54q28 0 57 4q137 18 259 190q120 168 119 271q0 105 -74 197q-72 89 -279 175t-231 181q-6 21 -6 39q0 61 66 80q28 8 55 8q58 0 120 -34q70 -38 70 -93q0 -16 -6 -34l14 -23l157 175 q-16 101 -121 157q-77 41 -143 41q-24 1 -47 -5q-85 -21 -156.5 -83t-121.5 -131t-52 -173q0 -4 -1 -7q0 -100 67 -177q69 -80 239.5 -160.5t245.5 -191.5q40 -59 39 -104q0 -40 -30 -68q-50 -47 -118 -47q-21 0 -44 5q-96 20 -183 73t-127 147q-19 44 -19 81q0 42 23 75 l-25 19z" />
<glyph unicode="T" horiz-adv-x="917" d="M14 1118l21 -16q53 45 420 27q-52 -56 -93 -105l4 -854q36 -153 162 -180l168 153l-15 34q-77 -2 -94 153l4 802h209l177 173l-18 21h-806z" />
<glyph unicode="U" horiz-adv-x="1031" d="M44 1162l5 -34q17 4 31 4q45 0 53 -45l4 -605q-2 -39 -2 -75q0 -137 25 -226q30 -113 122 -167q45 -27 88 -27q45 1 88 29q84 56 138.5 117t83.5 106q-1 -19 -1 -37q0 -150 75 -218l257 183l-25 48q-15 -13 -27 -13q-50 0 -50 207v20q4 263 4 433q0 238 -8 295 q-14 97 -91 168l-220 -164v-35q20 6 35 6q40 0 49 -41q15 -164 15 -376q0 -155 -8 -336q-108 -132 -190 -132q-24 0 -45 11q-95 48 -95 349v6q3 194 3 322q0 160 -4 218q-8 105 -94 182z" />
<glyph unicode="V" horiz-adv-x="1039" d="M15 1017l8 -25q18 22 37 22q39 0 78 -96l299 -822q54 -101 108 -101q33 0 65 36q87 96 160 221q72 125 170 357q53 127 54 255q0 107 -37 214q-81 237 -201 297q-18 9 -36 9q-107 0 -244 -296l19 -34q47 54 90 54q64 0 123 -118q91 -186 91 -377v-22q-6 -202 -94 -322h-2 q-87 0 -416 992q-14 53 -41 53q-17 0 -39 -20z" />
<glyph unicode="W" horiz-adv-x="1420" d="M1 1030l8 -26q18 22 37 22q39 0 78 -98l299 -838q54 -103 108 -103q32 0 64 37q87 98 184 264l74 -200q54 -102 108 -102q33 0 65 37q87 98 160 225q72 127 170 364q53 129 54 260q0 108 -37 218q-81 242 -201 303q-18 9 -36 9q-107 0 -244 -302l19 -33q47 54 90 54 q65 0 123 -119q91 -189 91 -385q-1 -11 -1 -22q-6 -207 -93 -330h-2q-87 0 -416 1012q-14 55 -42 55q-17 0 -38 -21l-192 -283l8 -25q18 22 37 22q39 0 78 -98l204 -561l-67 -99h-3q-87 0 -415 1011q-14 56 -42 56q-17 0 -38 -21z" />
<glyph unicode="X" horiz-adv-x="1125" d="M-3 1096l22 -24q37 36 169 26l200 -378q-285 -312 -295 -453t65 -209t134 -62l176 226l-16 26q-122 -14 -175.5 89.5t167.5 300.5q336 -650 483 -646l170 223l-19 31q-69 -55 -414 540l415 494l-15 41l-327 -2l-177 -227l22 -23q67 39 246 31l-219 -245l-242 464h-225z " />
<glyph unicode="Y" horiz-adv-x="949" d="M-3 1145l26 -29q17 20 41 20q18 0 38 -10l263 -427l4 -476q-1 -13 -1 -25q0 -147 101 -209l212 155l-10 32q-5 -1 -9 -1q-46 0 -54 79v515q296 258 314 433q2 16 2 32q0 150 -160 219l-177 -174q112 -82 116 -213v-7q0 -125 -138 -211l-219 344q-84 134 -127 134 q-4 0 -8 -1z" />
<glyph unicode="Z" horiz-adv-x="907" d="M21 38l48 -28q65 28 170 28q92 0 214 -21q96 -17 164 -17q121 0 159 52q60 81 125 238l-34 23q-35 -39 -185 -40q-144 0 -395 37l201 305q48 -26 105 -26q62 0 134 30l67 132q-103 -54 -174 -54q-42 0 -73 19l349 567l-21 40l-692 -3l-150 -258l23 -21q19 64 323 64 q120 0 284 -10l-203 -329q-81 17 -143 17q-104 0 -152 -49l-66 -124q85 68 183 68q51 0 105 -19q-294 -405 -366 -621z" />
<glyph unicode="[" horiz-adv-x="515" d="M73 -379l387 -1l110 162l-340 1v1703l229 1l120 155h-249l-256 -296z" />
<glyph unicode="\" horiz-adv-x="524" d="M-2 1604l54 -21l182 -230q92 -721 321 -1655l-69 -7q-45 129 -192 293q-47 584 -296 1620z" />
<glyph unicode="]" horiz-adv-x="570" d="M-10 -380l100 158l240 -2v1706l-329 1l100 157h402v-1859l-178 -161h-335z" />
<glyph unicode="^" horiz-adv-x="518" d="M32 1489l271 239q76 -160 208 -178l-111 -132q-139 6 -183 153l-150 -121z" />
<glyph unicode="_" horiz-adv-x="976" d="M-134 -388l14 -11q24 24 1137 13l88 115l-23 6q-18 -25 -1117 -12z" />
<glyph unicode="`" horiz-adv-x="395" d="M-8 1628q172 -187 260 -187q5 0 10 1l137 154q-14 -2 -29 -2q-115 0 -261 155z" />
<glyph unicode="a" horiz-adv-x="936" d="M12 287q-1 -11 -1 -23q1 -108 89 -186q93 -82 184 -82h9q96 4 164 46t134 119q24 -138 163 -164l177 193l-12 24q-11 -2 -21 -2q-63 0 -82 95l1 354q-11 135 -99 186.5t-235 57.5q-8 0 -16 1q-139 0 -287 -98q-99 -65 -99 -158q0 -53 33 -115l223 130q-35 53 -35 88 q0 65 120 68q3 0 7 1q158 0 158 -197q0 -25 -3 -53l-323 -5zM179 373l37 35l367 1v-180q-32 -41 -140 -41q-13 0 -27 1q-131 5 -237 184z" />
<glyph unicode="b" horiz-adv-x="931" d="M39 1284q42 -24 42 -334q0 -51 -1 -109q-3 -158 -3 -272q0 -185 8 -252q13 -109 177 -239q103 -81 189 -81q51 0 94 28q120 76 217 177q98 102 122 260q7 47 6 92q0 104 -40 192q-56 126 -224 156q-24 4 -47 4q-141 0 -267 -154q3 147 3 259q0 294 -21 343q-29 66 -48 71 zM318 666q30 45 107 57q14 2 28 2q63 0 121 -45q72 -55 84 -197q2 -21 2 -43q0 -124 -59 -271q-61 -23 -110 -23q-79 0 -127 61q-55 72 -54 279q0 80 8 180z" />
<glyph unicode="c" horiz-adv-x="787" d="M111 149q66 -81 134 -116.5t163 -36.5h1q94 0 193 92t164 188l-32 28q-25 -33 -65 -69.5t-103 -37.5h-2q-63 0 -136 49q-184 103 -184 297q0 42 8 87q21 84 99 84q24 0 53 -8q107 -40 148 -166l196 154q-3 87 -65.5 136.5t-123.5 63.5q-23 5 -46 6q-36 0 -71 -14 q-56 -22 -105 -54t-101 -74q-217 -167 -217 -355q0 -123 92 -254z" />
<glyph unicode="d" horiz-adv-x="940" d="M41 449q-8 -40 -8 -80q-1 -118 69 -228q93 -147 201 -151q2 0 4 -1q108 0 317 215q0 -142 124 -218l174 147q-90 50 -90 508q0 74 2 159q3 98 3 180q0 431 -75 445l-195 -134q42 -74 42 -353q0 -36 -1 -74q-65 33 -122 33h-14q-63 -4 -141 -57.5t-168.5 -142 t-121.5 -248.5zM263 694q13 1 25 1q136 0 192 -132l132 114v-59l4 -25v-309l-12 -4q-28 -62 -132 -69q-5 0 -11 -1q-98 0 -177 133q-48 80 -48 183q0 77 27 168z" />
<glyph unicode="e" horiz-adv-x="770" d="M26 509q-15 -62 -15 -121q0 -95 39 -181q62 -140 228 -199q40 -13 80 -13q99 0 203 78q147 110 193 205l-30 24q-151 -104 -256 -104q-36 0 -66 12q-120 47 -140 106l217 142q192 119 192 244q0 12 -2 25q-21 138 -177 162q-26 4 -51 4q-127 0 -241 -101 q-136 -121 -174 -283zM187 590q0 3 -1 6q0 69 53 121q27 27 62 26q36 0 81 -27q77 -47 77 -120q0 -12 -2 -23q-14 -90 -225 -203q-23 51 -32.5 99t-12.5 121z" />
<glyph unicode="f" horiz-adv-x="633" d="M18 595l32 -30q61 64 148 70l-5 -415q1 -6 1 -12q0 -68 -132 -177l18 -33h286l160 191l-10 19l-209 -4q80 58 80 276q0 68 -8 150l75 2l164 208l-24 14l-217 5l-39 293v12q0 74 55 74q16 0 36 -6q70 -21 70 -101q0 -30 -10 -69l18 -20l197 212q-26 158 -142 158 q-15 0 -30 -2q-144 -22 -220.5 -102.5t-156.5 -273.5l29 -214z" />
<glyph unicode="g" horiz-adv-x="970" d="M-35 -83q112 -203 340 -237q78 -11 140 -11q119 0 178 42q90 64 128.5 129t73.5 103.5t116 174.5v15q0 155 -187 176q-177 20 -177 43q0 2 1 4q21 26 140 146q58 59 58 138q0 82 -64 187q185 149 185 268q0 14 -2 27q-24 129 -111 152l-206 -221q101 -50 101 -126 q0 -26 -11 -54q-90 25 -152 25q-44 0 -73 -13q-71 -30 -160.5 -85.5t-160 -142.5t-80.5 -207q20 -233 288 -233q13 0 27 1q-1 -11 -1 -20q0 -67 61 -69q70 -1 222 -33q126 -27 126 -96q0 -14 -5 -30q-32 -94 -195 -94h-1q-165 1 -284 78q-93 61 -93 106q0 13 7 24l-21 35z M250 560q-12 37 -12 66q0 69 69 88q11 1 21 1q164 0 228 -138q18 -51 18 -88q0 -94 -118 -96q-152 26 -206 167z" />
<glyph unicode="h" d="M44 1270q25 -51 29 -137q-4 -946 13.5 -1017.5t71.5 -135.5l212 198v24q-67 -15 -85 75t-7 367q147 113 235.5 79.5t87.5 -243.5q-5 -300 2 -371.5t86 -124.5l202 184l1 25q-52 -16 -69 76.5t-7 302.5q7 129 -21 206.5t-119 113.5t-169 -2t-128.5 -80t-96.5 -70l-4 542 q-13 86 -62 126z" />
<glyph unicode="i" horiz-adv-x="424" d="M15 1143q93 -64 141 -154q168 112 189 140q8 11 8 28q0 26 -19 66q-31 66 -119 93zM30 747l16 -28q13 7 24 7q40 0 39 -108q0 -47 -7 -114q-2 -130 -2 -219q0 -125 4 -169q7 -75 89 -123l199 186l1 26h-3q-52 0 -64 75q-9 53 -9 161q0 47 2 105q4 130 3 198v49 q-3 58 -55 118z" />
<glyph unicode="j" horiz-adv-x="426" d="M-42 -323l24 -35q292 172 346 287q44 92 44 213q0 30 -2 62q-10 111 -10 234q0 55 2 113q4 132 4 199v46q-3 57 -59 116l-251 -162l17 -28q14 8 26 8q50 0 50 -146q0 -31 -2 -70l4 -480q-2 -104 -26.5 -165.5t-166.5 -191.5zM35 1143q89 -64 134 -154q160 112 179 140 q8 11 8 28q0 26 -18 66q-29 66 -112 93z" />
<glyph unicode="k" horiz-adv-x="919" d="M49 1277q26 -50 30 -135q-11 -966 5.5 -1041t84.5 -121l234 175l-30 33q-53 -44 -65 36.5t-7 452.5q93 77 159.5 68t81 -65.5t-35.5 -108.5t-190 -115v-65q84 98 192.5 -125t198.5 -280l253 197l-29 25q-75 -52 -180.5 115.5t-174.5 194.5q126 65 172.5 140t5 152.5 t-114.5 87.5t-142 -21t-199 -133v554q-13 85 -63 125z" />
<glyph unicode="l" horiz-adv-x="418" d="M29 1238q25 -48 29 -131q-10 -937 6 -1009.5t94 -117.5l256 184l-30 32q-67 -14 -99.5 45t-21.5 1018q-13 82 -62 121z" />
<glyph unicode="m" horiz-adv-x="1475" d="M29 736l23 -33q74 45 66 -92q-10 -433 3 -499.5t97 -117.5l212 184v24q-67 -15 -85 75t-7 367q128 116 216.5 82.5t87.5 -243.5q-5 -300 2 -371.5t86 -124.5l208 186l-5 23q-71 -19 -67 448q130 116 218.5 82.5t87.5 -243.5q-5 -300 2 -371.5t86 -124.5l208 186l-5 23 q-52 -16 -69 76.5t-7 302.5q7 129 -21 206.5t-119 113.5t-169 -2t-128.5 -77t-93.5 -86q0 23 -24 76t-115 89t-169 -2t-128.5 -80t-77.5 -73q9 123 -68 175z" />
<glyph unicode="n" horiz-adv-x="937" d="M29 736l23 -33q74 45 66 -92q-10 -433 3 -499.5t97 -117.5l212 184v24q-67 -15 -85 75t-7 367q128 116 216.5 82.5t87.5 -243.5q-5 -300 2 -371.5t86 -124.5l208 186l-5 23q-52 -16 -69 76.5t-7 302.5q7 129 -21 206.5t-119 113.5t-169 -2t-128.5 -80t-77.5 -73 q9 123 -68 175z" />
<glyph unicode="o" horiz-adv-x="832" d="M38 343q18 -124 145.5 -239t203.5 -116h1q76 0 238 149q63 57 110.5 121t69.5 181q6 32 7 65q0 91 -45 195q-135 209 -337 209q-23 0 -48 -3q-168 -110 -237.5 -191.5t-97.5 -163.5q-17 -50 -17 -115q0 -43 7 -92zM205 629q15 102 111 102q16 0 34 -3q127 -20 201 -163 q56 -107 56 -216q0 -36 -7 -72q-17 -97 -80 -97q-31 0 -73 23q-129 70 -194 188q-51 93 -51 188q-1 25 3 50z" />
<glyph unicode="p" d="M23 220q31 -32 88 -76q-7 -115 -7 -203q0 -194 35 -254q51 -88 138 -112l183 184l-19 33q-15 -5 -28 -5q-83 0 -83 202q0 32 2 68q39 -11 76 -11q71 0 138 39q102 59 197 179t122 208q9 28 9 64q0 73 -37 176q-55 152 -280 193l-210 -181q1 8 1 16q0 92 -76 152 l-228 -187l10 -32q11 9 20 9q41 0 41 -198q0 -81 -7 -194zM345 663l87 32q146 -16 206 -185q29 -81 29 -146q0 -73 -34 -127q-28 -43 -81 -43q-76 0 -205 88z" />
<glyph unicode="q" horiz-adv-x="984" d="M49 409q-5 -32 -5 -62q0 -110 69 -196q88 -109 233 -155q171 70 227 147q-4 -92 -4 -168q0 -308 65 -359l368 294l-33 58q-82 -76 -121 -76q-32 0 -34 52l6 740q-16 120 -74 142q94 101 132.5 149t61.5 107q11 30 11 64q0 32 -10 68q-21 74 -102 97l-220 -182l5 -17 q98 -1 98 -83q0 -57 -48 -155q-68 35 -124 35q-7 0 -14 -1q-61 -5 -130.5 -39.5t-141 -92t-131.5 -138.5t-84 -229zM246 546q44 194 154 206q10 1 19 1q97 0 158 -109l1 -425q-26 -22 -57 -22q-17 0 -35 6q-245 129 -245 292q0 25 5 51z" />
<glyph unicode="r" horiz-adv-x="698" d="M29 736l23 -33q74 45 66 -92q-10 -433 3 -499.5t97 -117.5l212 184v24q-67 -15 -85 75t-7 367q128 116 225 -23l181 167q-114 151 -206 117t-196 -165q9 123 -68 175z" />
<glyph unicode="s" horiz-adv-x="785" d="M25 268q-4 -12 -4 -25q0 -43 44 -96q58 -69 148.5 -107t184.5 -43q8 0 16 -1l172 56q94 61 138 141q37 66 37 133q0 14 -2 27q-9 80 -61.5 141t-225 109t-200.5 105q-8 16 -7 28q1 31 51 39q13 2 26 1q62 0 141 -38q72 -35 72 -69q0 -11 -8 -22l13 -15l149 142 q-15 68 -89 105q-51 26 -117 25q-29 0 -60 -4q-104 -16 -170 -58t-112.5 -88.5t-70.5 -129.5q-6 -22 -6 -43q0 -57 48 -101q66 -60 220.5 -92t205 -78t54.5 -86q0 -4 1 -8q0 -33 -33 -46q-21 -8 -53 -8q-25 0 -57 4q-74 11 -142.5 46t-117.5 84q-26 27 -26 51q0 21 19 41 l-23 14z" />
<glyph unicode="t" horiz-adv-x="669" d="M-10 646l31 -28q42 48 147 48q12 0 25 -1q-9 -213 -9 -342q0 -132 9 -175q18 -86 118 -155q137 71 329 228l-18 78q-117 -59 -174 -59q-48 0 -54 41q-7 51 -7 163q0 90 5 221h125l131 162l-8 20l-244 3l11 336q-11 86 -59 127l-182 -144h2q39 0 39 -154q0 -70 -8 -171 l-65 -1z" />
<glyph unicode="u" horiz-adv-x="938" d="M20 729l19 -23q8 6 15 6q26 0 36 -82q8 -64 8 -168q0 -65 -3 -145q-2 -28 -2 -54q0 -91 25 -147q32 -72 123 -109q44 -18 85 -18q43 0 84 20q78 38 128.5 80t77.5 73q-1 -13 -1 -25q0 -103 69 -150l245 179l-23 33q-7 -1 -14 -1q-52 0 -52 93q4 188 4 307q0 155 -7 193 q-13 66 -97 117l-212 -184l10 -18q13 7 24 7q38 0 52 -78q10 -61 10 -187q0 -82 -4 -190q-99 -90 -175 -90q-22 0 -41 8q-88 33 -88 243q2 125 2 210q0 119 -4 161q-7 72 -86 125z" />
<glyph unicode="v" horiz-adv-x="975" d="M-25 689l8 -17q18 15 37 15q39 0 78 -66l299 -558q54 -67 108 -67q33 0 65 24q87 65 160 150q72 84 170 242q53 86 54 173q0 72 -37 145q-81 160 -201 201q-18 6 -36 6q-107 0 -244 -201l19 -22q47 36 90 36q65 0 123 -80q91 -126 91 -256v-14q-6 -138 -94 -219h-2 q-87 0 -416 672q-14 38 -42 38q-17 0 -38 -14z" />
<glyph unicode="w" horiz-adv-x="1439" d="M11 689l8 -17q18 15 37 15q39 0 78 -66l299 -564q54 -70 108 -70q32 0 64 25q87 66 190 176l68 -132q54 -70 108 -70q33 0 65 25q87 66 160 151q72 86 170 246q53 87 54 175q0 73 -37 147q-81 163 -201 204q-18 6 -36 6q-107 0 -244 -203l19 -23q47 37 90 37 q65 0 123 -81q91 -128 91 -259q-1 -7 -1 -15q-6 -139 -93 -222h-2q-87 0 -416 681q-14 38 -42 38q-17 0 -38 -14l-192 -191l8 -17q18 15 37 15q39 0 78 -66l202 -377l-75 -58q-2 -4 -6 -4q-52 0 -402 676q-14 37 -41 37q-17 0 -39 -14z" />
<glyph unicode="x" horiz-adv-x="1005" d="M21 715l19 -17q34 24 158 19l177 -264q-264 -174 -272.5 -269t53 -147t139.5 -42l163 156l-14 18q-113 6 -151 57t128 164l267 -351q70 -61 133 -45l152 151l-17 21q-62 -37 -360 360l337 318l-32 54l-222 -1l-174 -173l19 -16q60 26 173 15l-147 -138l-212 308l-171 1z " />
<glyph unicode="y" horiz-adv-x="842" d="M-41 -225q214 -158 368 -158q44 0 83 13q176 59 273.5 131t113.5 264l-1 662q1 16 1 32q0 121 -69 190l-207 -153h3q38 0 38 -76q0 -10 -1 -22l-1 -429l-49 -56q-43 -23 -87 -23q-16 0 -32 4q-60 11 -78 100l1 493q-18 130 -88 159l-183 -135q56 -38 56 -148v-15l-1 -366 q11 -120 92 -190q70 -62 167 -62q15 0 30 2q117 10 182 121q7 -90 7 -158q0 -86 -11 -135q-13 -59 -79 -59q-34 0 -82 15q-142 45 -288 182z" />
<glyph unicode="z" horiz-adv-x="787" d="M18 18l40 -19q54 19 142 19q77 0 179 -15q80 -11 138 -11q101 0 133 35q51 55 124 242l-28 16q-37 -46 -186 -46q-112 0 -288 26l477 602l-17 27h-528l-161 -223l12 -22q49 35 312 35q61 0 134 -2q-423 -517 -483 -664z" />
<glyph unicode="{" horiz-adv-x="361" d="M18 549q93 -68 93 -358v-6v-48q0 -256 10 -351q11 -105 93 -173l154 140q-93 62 -93 323q0 50 4 109q3 53 3 101q0 266 -103 324q85 47 85 369v30q-1 67 -1 124q0 244 14 322q17 96 105 174l-28 32q-267 -229 -267 -601q0 -3 1 -6v-101q0 -283 -13 -322q-15 -47 -57 -82z " />
<glyph unicode="|" horiz-adv-x="354" d="M-19 -380q80 62 80 158q0 9 -1 18v1706q12 111 263 336l29 -34q-86 -110 -86 -194l-1 -1707q-34 -163 -249 -316z" />
<glyph unicode="}" horiz-adv-x="395" d="M18 -355l28 -32q267 229 267 601q0 3 -1 6v101q0 283 13 322q15 47 57 82q-93 68 -93 358v6v48q0 256 -10 351q-11 105 -93 173l-154 -140q93 -62 93 -323q0 -50 -4 -109q-3 -53 -3 -101q0 -266 103 -324q-85 -47 -85 -369v-30q1 -67 1 -124q0 -244 -14 -322 q-17 -96 -105 -174z" />
<glyph unicode="~" horiz-adv-x="1007" d="M90 999l40 -32l85 71q51 25 109 25q84 0 184 -51q77 -40 136 -40q70 0 115 55l172 166l-35 32l-71 -67q-39 -21 -88 -21q-81 0 -189 56q-68 35 -130 35q-96 0 -177 -84z" />
<glyph unicode="&#xa1;" horiz-adv-x="448" d="M77 56q22 -186 101 -198l193 171q-25 131 -55 973l-232 -151zM82 1030l231 163l-5 257l-226 -126v-294z" />
<glyph unicode="&#xa2;" horiz-adv-x="876" d="M151 149q62 -76 126 -112l-119 -433l49 -26q45 123 167 254q12 80 28 167q22 -2 46 -3q94 0 193.5 92t164.5 188l-32 28q-25 -33 -65 -69.5t-103 -36.5q-1 -1 -2 -1q-63 0 -136 49q-8 4 -15 9q37 179 87 383q33 -39 52 -98l196 154q-3 87 -66 136q-60 48 -119 63 q64 252 144 537l-41 -9l-153 -187q-32 -169 -71 -349q-56 -22 -105 -53q-49 -32 -101 -74q-217 -167 -217 -355q0 -123 92 -254zM292 630q21 83 99 83q23 0 51 -7l-88 -368q-71 85 -71 204q0 42 9 88z" />
<glyph unicode="&#xa3;" horiz-adv-x="969" d="M21 464l48 150l156 3l6 78l-191 -3l53 149l156 6q8 67 8 118q0 132 -51 151l136 133q60 -15 82 -95q88 123 151 153q61 29 119 29h3q60 -1 143.5 -57t94.5 -147l-167 -199l-31 22q7 22 7 42q0 71 -90 108q-48 20 -95 20q-61 0 -118 -36l-33 -257l201 2l-65 -134l-155 -3 l-9 -84h226l-63 -139l-182 5l-30 -243q84 -13 177 -13q170 0 371 43l19 -38l-162 -234q-216 12 -361 12q-200 0 -265 -23l-43 29q78 118 136 455z" />
<glyph unicode="&#xa5;" horiz-adv-x="974" d="M17 1138l26 -29q17 20 41 20q18 0 38 -10l258 -416q-57 0 -121 1l-139 -158l10 -15q20 21 256 27l1 -96q-60 0 -128 1l-139 -158l10 -15q20 21 258 27l1 -95q-1 -13 -1 -25q0 -146 101 -208l212 154l-10 32q-5 -1 -9 -1q-46 0 -54 78v68q63 0 134 -1l129 162l-21 9 q-17 -21 -242 -27v98q63 0 134 -1l129 162l-21 9q-17 -21 -242 -27v60q296 257 314 430q2 17 2 32q0 149 -160 218l-177 -173q112 -81 116 -211v-7q0 -125 -138 -210l-219 342q-84 133 -127 133q-4 0 -8 -1z" />
<glyph unicode="&#xa6;" horiz-adv-x="334" d="M-43 -385q80 62 80 158q0 9 -1 18v902l206 2l-1 -797q-34 -163 -249 -316zM38 861v636q12 111 263 336l29 -34q-86 -110 -86 -194l-1 -744h-205z" />
<glyph unicode="&#xa8;" horiz-adv-x="710" d="M66 1569q109 -19 115 -160l187 149v12q0 122 -120 166zM382 1565q109 -19 115 -160l187 149v12q0 122 -120 166z" />
<glyph unicode="&#xa9;" horiz-adv-x="739" d="M43 1070q0 86 44 164.5t123 121t161 42.5q83 0 161.5 -42.5t122.5 -121t44 -164.5q0 -85 -43 -163.5t-121 -121.5t-164 -43q-85 0 -163 43t-121.5 121.5t-43.5 163.5zM97 1070q0 -71 36.5 -136t101.5 -101.5t136 -36.5t136 36.5t101.5 101.5t36.5 136t-37 137 t-102.5 101.5t-134.5 35.5t-134.5 -35.5t-102.5 -101.5t-37 -137zM229 952q29 -35 58.5 -50.5t70.5 -15.5t84.5 40t71.5 81l-14 12q-11 -14 -34.5 -34t-64.5 -28q-7 -1 -13 -1q-36 0 -76 38q-48 45 -51 100v12q0 46 19 72q22 30 48 31.5t60 -11t51 -61.5l67 52 q-1 38 -28.5 59.5t-53.5 27.5q-10 2 -20 2q-16 0 -31 -6q-25 -10 -46 -23.5t-44 -31.5q-94 -73 -94 -154q0 -54 40 -111z" />
<glyph unicode="&#xaa;" horiz-adv-x="794" d="M52 993q-1 -10 -1 -19q0 -88 68 -151q72 -67 143 -67h6q74 3 126.5 37.5t103.5 96.5q18 -112 126 -133l136 157l-9 20q-9 -2 -16 -2q-49 0 -64 77l1 288q-8 110 -76 152t-182 47h-12q-108 0 -221 -79q-76 -53 -76 -128q0 -44 25 -94l172 106q-26 43 -26 71q0 53 92 56h5 q122 0 122 -161q0 -20 -2 -42l-249 -4zM180 1063l29 28l283 1v-146q-25 -34 -108 -34q-10 0 -21 1q-101 4 -183 150z" />
<glyph unicode="&#xab;" horiz-adv-x="635" d="M2 477l209 -473l130 167l-169 376l176 372l-65 131zM272 477l209 -473l130 167l-169 376l176 372l-65 131z" />
<glyph unicode="&#xad;" horiz-adv-x="875" d="M56 565l10 -15q33 34 632 29l129 162l-21 9q-27 -35 -611 -27z" />
<glyph unicode="&#x2212;" horiz-adv-x="875" d="M56 565l10 -15q33 34 632 29l129 162l-21 9q-27 -35 -611 -27z" />
<glyph unicode="&#xae;" horiz-adv-x="710" d="M33 1070q0 84 43.5 162t121.5 120t159 42q82 0 159.5 -42t121 -120t43.5 -162t-43 -161t-120 -120t-161 -43t-161 43t-120 120t-43 161zM87 1070q0 -70 36 -134t100 -100t134 -36t134.5 36t100 100t35.5 134t-36 135t-101 100t-133 35t-133 -35t-101 -100t-36 -135z M217 1232l1 -7q15 -5 19 -33v-251q3 -32 18 -48t26 -16q59 39 63 40l-6 12q-27 0 -28 24v110q4 1 8 1q48 0 93 -152q19 -38 52 -38h2l56 54l-4 12q-7 -4 -13 -4q-30 0 -52 75q-25 88 -78 88h-2q63 17 79 57q9 21 9 42q0 18 -6 37q-14 39 -66 47q-6 1 -12 1q-43 0 -67 -48 q-6 34 -31 49zM310 1085v125q16 16 35 16q11 0 23 -6q27 -12 27 -40q0 -7 -2 -15q-8 -40 -36 -54z" />
<glyph unicode="&#xaf;" horiz-adv-x="1326" d="M-2 1557l10 -15q33 34 1142 22l129 162l-21 9q-27 -35 -1121 -20z" />
<glyph unicode="&#xb0;" horiz-adv-x="610" d="M52 1072q-2 -19 -2 -36q0 -105 74 -191q86 -101 151 -109q10 -1 20 -1q53 0 95 38q50 45 114 155q54 93 54 178q0 15 -2 30q-11 97 -80 165.5t-122 79.5q-20 4 -38 4q-29 0 -52 -11q-36 -17 -116.5 -97t-95.5 -205zM161 1150q10 71 69 94q14 5 28 5q47 0 100 -56 q69 -73 80 -159q3 -22 3 -41q0 -56 -25 -85q-26 -32 -75 -32q-10 0 -21 1q-63 8 -116 105q-45 83 -45 145q0 12 2 23z" />
<glyph unicode="&#xb1;" horiz-adv-x="911" d="M53 242l10 -15q29 30 488 30q67 0 144 -1l129 162l-21 9q-22 -28 -413 -28q-89 0 -198 1zM91 768l278 2v-344l171 172v172h165l142 180h-311l1 316l-160 -148v-171h-160z" />
<glyph unicode="&#xb2;" horiz-adv-x="489" d="M15 1149q7 -67 51 -106l146 131l-11 12q-11 -5 -20 -5q-25 0 -37 35q-10 25 -10 45q0 18 8 33q15 26 52 26q5 0 11 -1q46 -4 95 -116q22 -52 22 -93q0 -47 -30 -79l-260 -273l17 -18h350l85 144l-20 6l-27 -38l-256 1q196 199 245 297q19 41 19 77q0 53 -41 98 q-51 55 -120 55q-26 0 -56 -8q-104 -30 -162 -93q-52 -56 -52 -116q0 -7 1 -14z" />
<glyph unicode="&#xb3;" horiz-adv-x="438" d="M2 1232l14 -16q38 41 73 41q8 0 17 -3l182 2l-203 -255l16 -23q38 46 78 46q41 0 84 -48q41 -47 41 -100q0 -55 -45 -117l-145 -163l20 -14q201 198 251 272q46 68 46 145v13q-4 84 -180 147l157 208l-9 13l-274 1z" />
<glyph unicode="&#xb4;" horiz-adv-x="410" d="M33 1442l32 -48l259 159q98 83 33 233l-231 -155q105 -87 -93 -189z" />
<glyph unicode="&#xb6;" horiz-adv-x="1363" d="M10 1091q-1 -14 -1 -27q0 -107 71 -194q80 -99 212 -110q12 -1 23 -1q121 0 239 115q-8 -273 -8 -488q0 -741 96 -800l174 147q-67 37 -67 641q0 345 22 875l185 1l-1 -1637l63 65l8 1572l130 2l195 175l-29 31l-655 -2q-106 3 -174 3q-61 0 -91 -2q-63 -5 -152 -36 t-159.5 -119.5t-80.5 -210.5z" />
<glyph unicode="&#xb7;" horiz-adv-x="465" d="M78 708q109 -19 115 -160l187 149q6 132 -120 178z" />
<glyph unicode="&#xb8;" horiz-adv-x="325" d="M31 -157l24 -23q31 40 88.5 28t53.5 -69t-96 -161l27 -17q170 135 177 202t-32.5 106t-92 36.5t-73.5 -17.5l27 75l-47 7z" />
<glyph unicode="&#xb9;" horiz-adv-x="372" d="M14 752l11 -14h211l124 83l-13 17q-98 0 -189 -2q100 42 109 111v424l-10 13l-226 -165l15 -25l78 46v-285q1 -7 1 -14q0 -93 -111 -189z" />
<glyph unicode="&#xba;" horiz-adv-x="677" d="M31 1050q15 -100 116 -192.5t162.5 -92.5t192.5 120q50 44 88.5 95.5t56.5 145.5q5 25 5 51q0 73 -36 157q-108 167 -270 167q-19 0 -39 -2q-135 -87 -190.5 -152.5t-78.5 -131.5q-14 -39 -14 -91q0 -34 7 -74zM165 1278q13 90 117 90h12q114 -5 176 -121q39 -75 39 -153 q0 -44 -12 -89q-26 -93 -98 -93q-24 0 -53 11q-117 42 -156 151q-29 80 -29 153q0 26 4 51z" />
<glyph unicode="&#xbb;" horiz-adv-x="640" d="M2 135l65 -131l281 573l-209 473l-130 -167l169 -376zM272 135l65 -131l281 573l-209 473l-130 -167l169 -376z" />
<glyph unicode="&#xbc;" horiz-adv-x="985" d="M24 1193l18 -16l43 33q9 -38 9 -160q0 -56 -2 -130q-1 -22 -1 -42q0 -198 54 -238q46 45 105 82q-35 53 -35 436q0 83 2 180l-21 9zM45 -167l63 -13q53 111 203 244q99 516 426 1417l-52 -14l-188 -188q-153 -635 -452 -1446zM419 116l20 -22q33 18 235 23q-2 -26 -2 -48 q0 -108 47 -144l118 70q-47 36 -47 116v10h117l63 84l-10 18l-167 -1q6 39 6 74q0 85 -36 139l-106 -71q21 -50 21 -95q0 -24 -6 -47l-167 3q209 298 209 389q0 6 -1 12q-16 81 -53 85l-116 -103q18 -10 18 -49q0 -110 -143 -443z" />
<glyph unicode="&#xbd;" horiz-adv-x="956" d="M24 1183l18 -16l43 33q9 -38 9 -160q0 -56 -2 -130q-1 -22 -1 -42q0 -198 54 -238q46 45 105 82q-35 53 -35 436q0 83 2 180l-21 9zM45 -167l63 -13q53 111 203 244q99 516 426 1417l-52 -14l-188 -188q-153 -635 -452 -1446zM471 24l24 -27q23 7 78 7q52 0 135 -6 q48 -4 84 -4q88 0 102 23q18 33 42 137l-13 7q-26 -40 -104 -40q-19 0 -40 2q-72 8 -120 8q-28 0 -48 -3l251 332q25 34 25 77q0 34 -15 74q-36 91 -142 95q-7 1 -13 1q-97 0 -157 -61q-64 -66 -72 -144q-1 -11 -1 -22q0 -64 40 -114l103 99q-44 53 -44 99q0 10 2 21 q11 45 50 45q8 0 17 -2q54 -11 106 -72q28 -34 28 -75q0 -35 -20 -75l-56 -72z" />
<glyph unicode="&#xbe;" horiz-adv-x="1225" d="M47 768q62 -99 146 -123q30 -8 56 -8q47 0 81 27q52 43 118 131q56 75 56 170q0 19 -2 38q-15 69 -66 102q-42 42 -90 42h-4l129 169l-11 19l-336 2l-70 -106l8 -15l277 1l-135 -157l17 -20q22 7 42 7q33 0 60 -21q42 -32 77 -115q13 -30 13 -56q0 -46 -39 -80 q-37 -32 -73 -32q-23 0 -46 13q-58 35 -111 87q-24 25 -24 57q0 34 30 76l-16 14q-105 -87 -105 -162q0 -31 18 -60zM255 -167l63 -13q53 111 203 244q99 516 426 1417l-52 -14l-188 -188q-153 -635 -452 -1446zM649 121l20 -22q32 19 232 23q-2 -26 -2 -48q0 -106 47 -142 l115 69q-46 36 -46 115v10h115l63 84l-9 17l-165 -1q5 38 5 71q0 87 -36 141l-104 -71q21 -50 21 -95q0 -24 -6 -46l-165 3q207 296 207 386q0 6 -1 11q-16 81 -53 85l-115 -102q18 -10 18 -49q0 -108 -141 -439z" />
<glyph unicode="&#xbf;" horiz-adv-x="886" d="M26 178q-7 34 -7 68q0 69 28 137q41 101 272 213v255l237 161l3 -328q-311 -208 -321 -319q-1 -11 -1 -22q0 -95 77 -157q43 -34 93 -34t106 35l136 185l8 15l237 -172l-151 -211l-178 119q-66 -83 -185 -133q-50 -21 -98 -21q-66 0 -128 39q-108 67 -128 170zM315 992 l3 268l236 133v-246z" />
<glyph unicode="&#xc0;" horiz-adv-x="1172" d="M22 43l15 -45l324 1l144 189l-15 18l-247 1q72 36 146 204l198 2l100 107q131 -372 191 -445.5t126 -89.5l155 182q-118 27 -287 562.5t-201 575.5t-81 40q-1 0 -2 -1q-50 0 -81.5 -23t-214.5 -258l42 -32q61 76 100 99q9 6 17 6q27 0 41 -66l-153 -442h-92l-204 -201 l19 -32q80 18 144 18q19 0 37 -2q-50 -136 -94 -215.5t-127 -152.5zM390 1618q172 -187 260 -187q5 0 10 1l137 154q-14 -2 -29 -2q-115 0 -261 155zM459 621l98 287l99 -288z" />
<glyph unicode="&#xc1;" horiz-adv-x="1174" d="M22 43l15 -45l324 1l144 189l-15 18l-247 1q72 36 146 204l198 2l100 107q131 -372 191 -445.5t126 -89.5l155 182q-118 27 -287 562.5t-201 575.5t-81 40q-1 0 -2 -1q-50 0 -81.5 -23t-214.5 -258l42 -32q61 76 100 99q9 6 17 6q27 0 41 -66l-153 -442h-92l-204 -201 l19 -32q80 18 144 18q19 0 37 -2q-50 -136 -94 -215.5t-127 -152.5zM392 1397l32 -48l259 159q59 50 59 124q0 49 -26 109l-231 -155q36 -30 36 -62q0 -60 -129 -127zM459 621l98 287l99 -288z" />
<glyph unicode="&#xc2;" horiz-adv-x="1175" d="M22 43l15 -45l324 1l144 189l-15 18l-247 1q72 36 146 204l198 2l100 107q131 -372 191 -445.5t126 -89.5l155 182q-118 27 -287 562.5t-201 575.5t-81 40q-1 0 -2 -1q-50 0 -81.5 -23t-214.5 -258l42 -32q61 76 100 99q9 6 17 6q27 0 41 -66l-153 -442h-92l-204 -201 l19 -32q80 18 144 18q19 0 37 -2q-50 -136 -94 -215.5t-127 -152.5zM350 1509l271 239q76 -160 208 -178l-111 -132q-139 6 -183 153l-150 -121zM459 621l98 287l99 -288z" />
<glyph unicode="&#xc3;" horiz-adv-x="1183" d="M22 43l15 -45l324 1l144 189l-15 18l-247 1q72 36 146 204l198 2l100 107q131 -372 191 -445.5t126 -89.5l155 182q-118 27 -287 562.5t-201 575.5t-81 40q-1 0 -2 -1q-50 0 -81.5 -23t-214.5 -258l42 -32q61 76 100 99q9 6 17 6q27 0 41 -66l-153 -442h-92l-204 -201 l19 -32q80 18 144 18q19 0 37 -2q-50 -136 -94 -215.5t-127 -152.5zM304 1469l25 -32l53 71q32 25 68 25q52 0 114 -51q48 -40 85 -40q44 0 72 55l107 166l-22 32l-44 -67q-24 -21 -55 -21q-50 0 -118 56q-42 35 -81 35q-60 0 -110 -84zM459 621l98 287l99 -288z" />
<glyph unicode="&#xc4;" horiz-adv-x="1188" d="M22 43l15 -45l324 1l144 189l-15 18l-247 1q72 36 146 204l198 2l100 107q131 -372 191 -445.5t126 -89.5l155 182q-118 27 -287 562.5t-201 575.5t-81 40q-1 0 -2 -1q-50 0 -81.5 -23t-214.5 -258l42 -32q61 76 100 99q9 6 17 6q27 0 41 -66l-153 -442h-92l-204 -201 l19 -32q80 18 144 18q19 0 37 -2q-50 -136 -94 -215.5t-127 -152.5zM246 1553q109 -19 115 -160l187 149v12q0 122 -120 166zM459 621l98 287l99 -288zM622 1549q109 -19 115 -160l187 149v12q0 122 -120 166z" />
<glyph unicode="&#xc5;" horiz-adv-x="1170" d="M22 43l15 -45l324 1l144 189l-15 18l-247 1q72 36 146 204l198 2l100 107q131 -372 191 -445.5t126 -89.5l155 182q-118 27 -287 562.5t-201 575.5t-81 40q-1 0 -2 -1q-50 0 -81.5 -23t-214.5 -258l42 -32q61 76 100 99q9 6 17 6q27 0 41 -66l-153 -442h-92l-204 -201 l19 -32q80 18 144 18q19 0 37 -2q-50 -136 -94 -215.5t-127 -152.5zM382 1569q-2 -9 -2 -18q0 -55 54 -100q62 -52 110 -57h15q39 0 69 19q36 24 82 82q40 49 40 93q0 8 -2 15q-8 51 -58 87t-88 42q-15 2 -29 2q-20 0 -37 -6q-27 -9 -85.5 -51t-68.5 -108zM459 621l98 287 l99 -288zM460 1611q8 37 51 48q10 3 21 3q34 0 72 -29q50 -37 58 -83q2 -11 2 -21q0 -29 -18 -45q-19 -17 -55 -17q-7 0 -15 1q-46 4 -84 55q-33 43 -33 76q0 6 1 12z" />
<glyph unicode="&#xc6;" horiz-adv-x="1837" d="M32 43l15 -45l324 1l144 189l-15 18l-247 1q72 36 146 204l198 2l100 107q131 -372 249 -454q110 -76 220 -76h14l161 4q392 205 447 409q13 47 13 89q0 141 -144 231l-185 -235q126 -100 126 -178q0 -14 -4 -28q-25 -79 -137 -79q-12 0 -26 1q-135 10 -262 136 q-76 75 -76 173q0 66 34 141q57 -23 136 -31l197 208l-18 22q-228 0 -286 58q-51 51 -51 127q0 13 1 26q10 94 106 113q29 6 58 6q64 0 124 -29q77 -37 77 -99q0 -9 -2 -19l22 -15l169 183q-15 41 -75.5 87t-139.5 48q-10 1 -20 1q-67 0 -123 -15q-63 -17 -163.5 -90.5 t-173.5 -221.5q-20 -42 -20 -88q0 -111 126 -238q-83 -64 -114 -139q-244 717 -276 757t-81 40q-1 0 -2 -1q-50 0 -81.5 -23t-214.5 -258l42 -32q61 76 100 99q9 6 17 6q27 0 41 -66l-153 -442h-92l-204 -201l19 -32q80 18 144 18q19 0 37 -2q-50 -136 -94 -215.5 t-127 -152.5zM469 621l98 287l99 -288z" />
<glyph unicode="&#xc7;" d="M36 716q-9 -67 -9 -127q0 -109 31 -197q50 -136 137.5 -235.5t214.5 -141.5q37 -12 73 -17l-52 -155l24 -23q24 31 63 31q12 0 26 -3q53 -11 53 -62v-7q-4 -57 -96 -161l27 -17q170 135 177 202q1 10 1 20q0 53 -33 86q-38 37 -86 37h-6q-53 -3 -74 -18l24 67 q63 1 124 25q119 47 250 221l-42 41q-76 -85 -175 -85q-78 0 -170 54q-209 120 -273 358q-32 117 -32 215q0 101 33 182q66 159 215 162h12q139 0 183 -70q27 -42 27 -76q0 -26 -15 -47l31 -16l180 151q6 15 6 31q0 48 -50 110q-67 82 -215 86h-16q-137 0 -233 -54 q-102 -57 -204.5 -218.5t-130.5 -348.5z" />
<glyph unicode="&#xc8;" horiz-adv-x="940" d="M40 288q59 -229 431 -294q392 205 447 409q13 47 13 89q0 141 -144 231l-185 -235q126 -100 126 -178q0 -14 -4 -28q-25 -79 -137 -79q-12 0 -26 1q-135 10 -262 136q-76 75 -76 173q0 66 34 141q57 -23 136 -31l197 208l-18 22q-228 0 -286 58q-51 51 -51 127q0 13 2 26 q9 94 105 113q29 6 58 6q64 0 125 -29q76 -37 76 -99q0 -9 -2 -19l22 -15l169 183q-15 41 -75.5 87t-139.5 48q-10 1 -20 1q-67 0 -123 -15q-63 -17 -163.5 -90.5t-172.5 -221.5q-21 -42 -21 -88q0 -111 126 -238q-170 -145 -170 -317q0 -40 9 -82zM333 1628 q172 -187 260 -187q5 0 10 1l137 154q-14 -2 -29 -2q-115 0 -261 155z" />
<glyph unicode="&#xc9;" horiz-adv-x="943" d="M40 288q59 -229 431 -294q392 205 447 409q13 47 13 89q0 141 -144 231l-185 -235q126 -100 126 -178q0 -14 -4 -28q-25 -79 -137 -79q-12 0 -26 1q-135 10 -262 136q-76 75 -76 173q0 66 34 141q57 -23 136 -31l197 208l-18 22q-228 0 -286 58q-51 51 -51 127q0 13 2 26 q9 94 105 113q29 6 58 6q64 0 125 -29q76 -37 76 -99q0 -9 -2 -19l22 -15l169 183q-15 41 -75.5 87t-139.5 48q-10 1 -20 1q-67 0 -123 -15q-63 -17 -163.5 -90.5t-172.5 -221.5q-21 -42 -21 -88q0 -111 126 -238q-170 -145 -170 -317q0 -40 9 -82zM330 1402l32 -48l259 159 q59 50 59 124q0 49 -26 109l-231 -155q36 -30 36 -62q0 -60 -129 -127z" />
<glyph unicode="&#xca;" horiz-adv-x="951" d="M40 288q59 -229 431 -294q392 205 447 409q13 47 13 89q0 141 -144 231l-185 -235q126 -100 126 -178q0 -14 -4 -28q-25 -79 -137 -79q-12 0 -26 1q-135 10 -262 136q-76 75 -76 173q0 66 34 141q57 -23 136 -31l197 208l-18 22q-228 0 -286 58q-51 51 -51 127q0 13 2 26 q9 94 105 113q29 6 58 6q64 0 125 -29q76 -37 76 -99q0 -9 -2 -19l22 -15l169 183q-15 41 -75.5 87t-139.5 48q-10 1 -20 1q-67 0 -123 -15q-63 -17 -163.5 -90.5t-172.5 -221.5q-21 -42 -21 -88q0 -111 126 -238q-170 -145 -170 -317q0 -40 9 -82zM280 1499l271 239 q76 -160 208 -178l-111 -132q-139 6 -183 153l-150 -121z" />
<glyph unicode="&#xcb;" horiz-adv-x="949" d="M40 288q59 -229 431 -294q392 205 447 409q13 47 13 89q0 141 -144 231l-185 -235q126 -100 126 -178q0 -14 -4 -28q-25 -79 -137 -79q-12 0 -26 1q-135 10 -262 136q-76 75 -76 173q0 66 34 141q57 -23 136 -31l197 208l-18 22q-228 0 -286 58q-51 51 -51 127q0 13 2 26 q9 94 105 113q29 6 58 6q64 0 125 -29q76 -37 76 -99q0 -9 -2 -19l22 -15l169 183q-15 41 -75.5 87t-139.5 48q-10 1 -20 1q-67 0 -123 -15q-63 -17 -163.5 -90.5t-172.5 -221.5q-21 -42 -21 -88q0 -111 126 -238q-170 -145 -170 -317q0 -40 9 -82zM199 1569 q109 -19 115 -160l187 149v12q0 122 -120 166zM515 1565q109 -19 115 -160l187 149v12q0 122 -120 166z" />
<glyph unicode="&#xcc;" horiz-adv-x="438" d="M25 1618q172 -187 260 -187q5 0 10 1l137 154q-14 -2 -29 -2q-115 0 -261 155zM27 1173l14 -29q9 3 16 3q37 0 41 -72q-4 -349 -4 -573q0 -357 10 -400q18 -70 103 -113l213 169l-33 31h-4q-33 0 -53 53q-13 35 -13 422q0 221 4 557q-14 80 -67 117z" />
<glyph unicode="&#xcd;" horiz-adv-x="453" d="M20 1402l32 -48l259 159q59 50 59 124q0 49 -26 109l-231 -155q36 -30 36 -62q0 -60 -129 -127zM27 1173l14 -29q9 3 16 3q37 0 41 -72q-4 -349 -4 -573q0 -357 10 -400q18 -70 103 -113l213 169l-33 31h-4q-33 0 -53 53q-13 35 -13 422q0 221 4 557q-14 80 -67 117z" />
<glyph unicode="&#xce;" horiz-adv-x="485" d="M5 1499l271 239q76 -160 208 -178l-111 -132q-139 6 -183 153l-150 -121zM47 1173l14 -29q9 3 16 3q37 0 41 -72q-4 -349 -4 -573q0 -357 10 -400q18 -70 103 -113l213 169l-33 31h-4q-33 0 -53 53q-13 35 -13 422q0 221 4 557q-14 80 -67 117z" />
<glyph unicode="&#xcf;" horiz-adv-x="439" d="M-89 1569q109 -19 115 -160l187 149v12q0 122 -120 166zM27 1173l14 -29q9 3 16 3q37 0 41 -72q-4 -349 -4 -573q0 -357 10 -400q18 -70 103 -113l213 169l-33 31h-4q-33 0 -53 53q-13 35 -13 422q0 221 4 557q-14 80 -67 117zM227 1565q109 -19 115 -160l187 149v12 q0 122 -120 166z" />
<glyph unicode="&#xd0;" horiz-adv-x="1009" d="M-126 548l102 140l168 -1l-2 334q-22 104 -81 104q-11 0 -23 -4l-15 34l225 184q115 -72 131 -216l202 219q145 -20 226 -113q186 -213 190 -437v-24q0 -207 -57 -326q-60 -126 -130.5 -222t-146.5 -167q-63 -58 -168 -58q-24 0 -50 3q-142 16 -223 117t-82 273l4 166 q-61 2 -108 2q-136 0 -155 -19zM370 555l5 -122q15 -185 125 -243q49 -27 98 -27q57 0 113 38q79 174 79 355q0 63 -10 127q-37 246 -130 341q-87 89 -144 89h-8q-58 -6 -120 -82l-6 -343q43 -1 78 -1q161 0 177 22l15 -7l-95 -143z" />
<glyph unicode="&#xd1;" horiz-adv-x="1070" d="M19 1048l25 -47q20 16 34 16q38 0 38 -109q0 -17 -1 -37q-4 -256 -4 -421q0 -232 8 -287q14 -94 105 -166l226 209v34q-9 -3 -17 -3q-57 0 -73 135q-12 106 -12 300q0 86 2 189l374 -579v-9q0 -48 9 -125q11 -83 82 -152l219 221l-5 33q-7 -3 -14 -3q-45 0 -59 132 q-9 89 -9 228q0 98 5 222v134l2 193q0 89 -64 156l-246 -245l16 -46q17 9 29 9q35 0 35 -69q0 -11 -1 -25l-1 -405l-373 594q4 19 4 37q0 79 -69 139zM316 1459l25 -32l53 71q32 25 68 25q52 0 114 -51q48 -40 85 -40q44 0 72 55l107 166l-22 32l-44 -67q-24 -21 -55 -21 q-50 0 -118 56q-42 35 -81 35q-60 0 -110 -84z" />
<glyph unicode="&#xd2;" horiz-adv-x="952" d="M29 498q22 -178 168 -344q147 -166 235 -166t276 214q73 82 128 173.5t81 260.5q7 45 7 93q0 130 -52 281q-156 300 -389 300q-27 0 -55 -4q-194 -157 -274.5 -274.5t-113.5 -236.5q-19 -72 -19 -165q0 -61 8 -132zM222 909q20 162 170 162h16q165 -9 253 -219 q57 -134 57 -274q0 -79 -18 -159q-37 -167 -140 -167q-35 0 -78 19q-168 75 -224 271q-41 144 -41 274q0 48 5 93zM313 1618q172 -187 260 -187q5 0 10 1l137 154q-14 -2 -29 -2q-115 0 -261 155z" />
<glyph unicode="&#xd3;" horiz-adv-x="958" d="M29 498q22 -178 168 -344q147 -166 235 -166t276 214q73 82 128 173.5t81 260.5q7 45 7 93q0 130 -52 281q-156 300 -389 300q-27 0 -55 -4q-194 -157 -274.5 -274.5t-113.5 -236.5q-19 -72 -19 -165q0 -61 8 -132zM222 909q20 162 170 162h16q165 -9 253 -219 q57 -134 57 -274q0 -79 -18 -159q-37 -167 -140 -167q-35 0 -78 19q-168 75 -224 271q-41 144 -41 274q0 48 5 93zM284 1412l32 -48l259 159q59 50 59 124q0 49 -26 109l-231 -155q36 -30 36 -62q0 -60 -129 -127z" />
<glyph unicode="&#xd4;" horiz-adv-x="956" d="M29 498q22 -178 168 -344q147 -166 235 -166t276 214q73 82 128 173.5t81 260.5q7 45 7 93q0 130 -52 281q-156 300 -389 300q-27 0 -55 -4q-194 -157 -274.5 -274.5t-113.5 -236.5q-19 -72 -19 -165q0 -61 8 -132zM222 909q20 162 170 162h16q165 -9 253 -219 q57 -134 57 -274q0 -79 -18 -159q-37 -167 -140 -167q-35 0 -78 19q-168 75 -224 271q-41 144 -41 274q0 48 5 93zM270 1479l271 239q76 -160 208 -178l-111 -132q-139 6 -183 153l-150 -121z" />
<glyph unicode="&#xd5;" horiz-adv-x="938" d="M29 498q22 -178 168 -344q147 -166 235 -166t276 214q73 82 128 173.5t81 260.5q7 45 7 93q0 130 -52 281q-156 300 -389 300q-27 0 -55 -4q-194 -157 -274.5 -274.5t-113.5 -236.5q-19 -72 -19 -165q0 -61 8 -132zM220 1479l25 -32l53 71q32 25 68 25q52 0 114 -51 q48 -40 85 -40q44 0 72 55l107 166l-22 32l-44 -67q-24 -21 -55 -21q-50 0 -118 56q-42 35 -81 35q-60 0 -110 -84zM222 909q20 162 170 162h16q165 -9 253 -219q57 -134 57 -274q0 -79 -18 -159q-37 -167 -140 -167q-35 0 -78 19q-168 75 -224 271q-41 144 -41 274 q0 48 5 93z" />
<glyph unicode="&#xd6;" horiz-adv-x="958" d="M29 498q22 -178 168 -344q147 -166 235 -166t276 214q73 82 128 173.5t81 260.5q7 45 7 93q0 130 -52 281q-156 300 -389 300q-27 0 -55 -4q-194 -157 -274.5 -274.5t-113.5 -236.5q-19 -72 -19 -165q0 -61 8 -132zM137 1559q109 -19 115 -160l187 149v12q0 122 -120 166 zM222 909q20 162 170 162h16q165 -9 253 -219q57 -134 57 -274q0 -79 -18 -159q-37 -167 -140 -167q-35 0 -78 19q-168 75 -224 271q-41 144 -41 274q0 48 5 93zM513 1555q109 -19 115 -160l187 149v12q0 122 -120 166z" />
<glyph unicode="&#xd7;" horiz-adv-x="779" d="M54 363l39 -42l264 252l254 -263l128 126l-251 261l256 256l-42 40l-258 -256l-242 264l-141 -124l250 -253z" />
<glyph unicode="&#xd8;" horiz-adv-x="972" d="M-127 -185l293 401q-101 137 -118 282q-9 71 -9 132q0 93 20 165q32 119 112.5 236.5t274.5 274.5q28 4 55 4q174 0 306 -168l80 126l223 136l46 -1l-276 -373l10 -20q52 -151 52 -281q0 -48 -7 -93q-26 -169 -81 -260.5t-128 -173.5q-188 -213 -276 -213q-74 0 -190 118 q-13 -22 -86 -134q-170 -91 -258 -190zM241 910q-6 -46 -6 -94q0 -130 41 -274q18 -61 46 -110l331 475q-85 156 -227 164h-16q-150 0 -169 -161zM401 335q43 -39 99 -64q42 -19 77 -19q104 0 141 168q18 80 18 158q0 105 -32 206q-172 -245 -303 -449z" />
<glyph unicode="&#xd9;" horiz-adv-x="994" d="M14 1162l5 -34q17 4 31 4q45 0 53 -45l4 -605q-2 -39 -2 -75q0 -136 25 -226q30 -113 122 -167q45 -27 88 -27q45 0 88 29q84 55 138.5 116.5t83.5 106.5q-1 -19 -1 -37q0 -150 75 -218l257 183l-25 48q-15 -13 -27 -13q-50 0 -50 207v20q4 263 4 433q0 238 -8 295 q-14 97 -91 168l-220 -164v-35q20 6 35 6q40 0 49 -41q15 -164 15 -376q0 -155 -8 -336q-108 -132 -190 -132q-24 0 -45 11q-95 48 -95 349v6q3 194 3 322q0 160 -4 218q-8 105 -94 182zM281 1608q172 -187 260 -187q5 0 10 1l137 154q-14 -2 -29 -2q-115 0 -261 155z" />
<glyph unicode="&#xda;" horiz-adv-x="1014" d="M44 1162l5 -34q17 4 31 4q45 0 53 -45l4 -605q-2 -39 -2 -75q0 -136 25 -226q30 -113 122 -167q45 -27 88 -27q45 0 88 29q84 55 138.5 116.5t83.5 106.5q-1 -19 -1 -37q0 -150 75 -218l257 183l-25 48q-15 -13 -27 -13q-50 0 -50 207v20q4 263 4 433q0 238 -8 295 q-14 97 -91 168l-220 -164v-35q20 6 35 6q40 0 49 -41q15 -164 15 -376q0 -155 -8 -336q-108 -132 -190 -132q-24 0 -45 11q-95 48 -95 349v6q3 194 3 322q0 160 -4 218q-8 105 -94 182zM382 1402l32 -48l259 159q59 50 59 124q0 49 -26 109l-231 -155q36 -30 36 -62 q0 -60 -129 -127z" />
<glyph unicode="&#xdb;" horiz-adv-x="984" d="M14 1162l5 -34q17 4 31 4q45 0 53 -45l4 -605q-2 -39 -2 -75q0 -136 25 -226q30 -113 122 -167q45 -27 88 -27q45 0 88 29q84 55 138.5 116.5t83.5 106.5q-1 -19 -1 -37q0 -150 75 -218l257 183l-25 48q-15 -13 -27 -13q-50 0 -50 207v20q4 263 4 433q0 238 -8 295 q-14 97 -91 168l-220 -164v-35q20 6 35 6q40 0 49 -41q15 -164 15 -376q0 -155 -8 -336q-108 -132 -190 -132q-24 0 -45 11q-95 48 -95 349v6q3 194 3 322q0 160 -4 218q-8 105 -94 182zM282 1499l271 239q76 -160 208 -178l-111 -132q-139 6 -183 153l-150 -121z" />
<glyph unicode="&#xdc;" horiz-adv-x="983" d="M44 1162l5 -34q17 4 31 4q45 0 53 -45l4 -605q-2 -39 -2 -75q0 -136 25 -226q30 -113 122 -167q45 -27 88 -27q45 0 88 29q84 55 138.5 116.5t83.5 106.5q-1 -19 -1 -37q0 -150 75 -218l257 183l-25 48q-15 -13 -27 -13q-50 0 -50 207v20q4 263 4 433q0 238 -8 295 q-14 97 -91 168l-220 -164v-35q20 6 35 6q40 0 49 -41q15 -164 15 -376q0 -155 -8 -336q-108 -132 -190 -132q-24 0 -45 11q-95 48 -95 349v6q3 194 3 322q0 160 -4 218q-8 105 -94 182zM143 1564q109 -19 115 -160l187 149v12q0 122 -120 166zM519 1560q109 -19 115 -160 l187 149v12q0 122 -120 166z" />
<glyph unicode="&#xdd;" horiz-adv-x="953" d="M-3 1138l26 -29q17 20 41 20q18 0 38 -10l263 -424l4 -473q-1 -13 -1 -25q0 -146 101 -208l212 154l-10 32q-5 -1 -9 -1q-46 0 -54 78v512q296 257 314 430q2 17 2 32q0 149 -160 218l-177 -173q112 -81 116 -211v-7q0 -125 -138 -210l-219 342q-84 133 -127 133 q-4 0 -8 -1zM300 1402l32 -48l259 159q59 50 59 124q0 49 -26 109l-231 -155q36 -30 36 -62q0 -60 -129 -127z" />
<glyph unicode="&#xde;" horiz-adv-x="1052" d="M27 1357l12 -42q5 2 9 2q56 0 56 -296q0 -58 -2 -127l-9 -884q14 -179 96 -228l199 186l1 26q-14 -5 -26 -5q-55 0 -55 114v7l1 146q52 -62 159 -62q25 0 52 3q148 18 272 103t177 204q43 95 43 229q0 32 -3 67q-13 179 -140 284q-125 104 -234 104h-2 q-109 -1 -172.5 -11t-137.5 -55l4 206l-20 83q-29 83 -96 108zM319 977q39 99 126 99t195 -99q106 -96 106 -312v-11q-3 -225 -74 -298q-58 -58 -149 -58q-23 0 -48 3q-125 19 -153 144q-15 67 -15 211q0 129 12 321z" />
<glyph unicode="&#xdf;" horiz-adv-x="955" d="M7 784h155v-626q2 -126 -140 -126l20 -33l255 1h4q71 0 85 69l1 1079q24 54 77 54q16 0 35 -4q81 -22 102 -149q4 -25 4 -47q0 -95 -70 -156l-117 -4l-1 -60h7q51 0 109 -26q62 -27 119 -128q29 -50 29 -159q0 -107 -28 -270q-56 -329 -319 -568l24 -26 q343 253 453.5 407.5t123.5 352.5q1 26 1 52q0 162 -68 267q-79 121 -273 148q201 90 207 261v18q0 156 -103 203q-65 30 -120 30q-37 0 -69 -14q-81 -34 -143 -99q-29 83 -96 108l-184 -162l12 -42q8 3 14 3q45 0 49 -128v-163h-113z" />
<glyph unicode="&#xe0;" horiz-adv-x="947" d="M12 287q-1 -11 -1 -23q0 -108 89 -186q93 -82 184 -82h9q96 4 164 46t134 119q24 -138 163 -164l177 193l-12 24q-11 -2 -21 -2q-63 0 -82 95l1 354q-11 135 -99 186.5t-235 57.5h-16q-140 0 -287 -97q-99 -65 -99 -158q0 -53 33 -115l223 130q-35 53 -35 88q0 66 120 68 q4 1 7 1q158 0 158 -197q0 -25 -3 -53l-323 -5zM179 373l37 35l367 1v-180q-32 -41 -140 -41h-27q-131 6 -237 185zM244 1218q172 -187 260 -187q5 0 10 1l137 154q-14 -2 -29 -2q-115 0 -261 155z" />
<glyph unicode="&#xe1;" horiz-adv-x="953" d="M32 287q-1 -11 -1 -23q0 -108 89 -186q93 -82 184 -82h9q96 4 164 46t134 119q24 -138 163 -164l177 193l-12 24q-11 -2 -21 -2q-63 0 -82 95l1 354q-11 135 -99 186.5t-235 57.5h-16q-140 0 -287 -97q-99 -65 -99 -158q0 -53 33 -115l223 130q-35 53 -35 88q0 66 120 68 q4 1 7 1q158 0 158 -197q0 -25 -3 -53l-323 -5zM199 373l37 35l367 1v-180q-32 -41 -140 -41h-27q-131 6 -237 185zM274 1002l32 -48l259 159q59 50 59 124q0 49 -26 109l-231 -155q36 -30 36 -62q0 -60 -129 -127z" />
<glyph unicode="&#xe2;" horiz-adv-x="935" d="M12 287q-1 -11 -1 -23q0 -108 89 -186q93 -82 184 -82h9q96 4 164 46t134 119q24 -138 163 -164l177 193l-12 24q-11 -2 -21 -2q-63 0 -82 95l1 354q-11 135 -99 186.5t-235 57.5h-16q-140 0 -287 -97q-99 -65 -99 -158q0 -53 33 -115l223 130q-35 53 -35 88q0 66 120 68 q4 1 7 1q158 0 158 -197q0 -25 -3 -53l-323 -5zM179 373l37 35l367 1v-180q-32 -41 -140 -41h-27q-131 6 -237 185zM244 1089l271 239q76 -160 208 -178l-111 -132q-139 6 -183 153l-150 -121z" />
<glyph unicode="&#xe3;" horiz-adv-x="950" d="M12 287q-1 -11 -1 -23q0 -108 88 -186q94 -82 185 -82h9q96 4 164 46t134 119q24 -138 163 -164l177 193l-12 24q-11 -2 -21 -2q-63 0 -82 95l1 354q-11 135 -99 186.5t-235 57.5h-16q-140 0 -287 -97q-99 -65 -99 -158q0 -53 33 -115l223 130q-35 53 -35 88q0 66 120 68 q4 1 7 1q158 0 158 -197q0 -25 -3 -53l-323 -5zM179 373l37 35l367 1v-180q-32 -41 -140 -41h-27q-131 6 -237 185zM218 1009l25 -32l53 71q32 25 68 25q52 0 114 -51q48 -40 85 -40q44 0 72 55l107 166l-22 32l-44 -67q-24 -21 -55 -21q-50 0 -118 56q-42 35 -81 35 q-60 0 -110 -84z" />
<glyph unicode="&#xe4;" horiz-adv-x="945" d="M12 287q-1 -11 -1 -23q0 -108 89 -186q93 -82 184 -82h9q96 4 164 46t134 119q24 -138 163 -164l177 193l-12 24q-11 -2 -21 -2q-63 0 -82 95l1 354q-11 135 -99 186.5t-235 57.5h-16q-140 0 -287 -97q-99 -65 -99 -158q0 -53 33 -115l223 130q-35 53 -35 88q0 66 120 68 q4 1 7 1q158 0 158 -197q0 -25 -3 -53l-323 -5zM136 1159q109 -19 115 -160l187 149v12q0 122 -120 166zM179 373l37 35l367 1v-180q-32 -41 -140 -41h-27q-131 6 -237 185zM452 1155q109 -19 115 -160l187 149v12q0 122 -120 166z" />
<glyph unicode="&#xe5;" horiz-adv-x="945" d="M12 287q-1 -11 -1 -23q0 -108 89 -186q93 -82 184 -82h9q96 4 164 46t134 119q24 -138 163 -164l177 193l-12 24q-11 -2 -21 -2q-63 0 -82 95l1 354q-11 135 -99 186.5t-235 57.5h-16q-140 0 -287 -97q-99 -65 -99 -158q0 -53 33 -115l223 130q-35 53 -35 88q0 66 120 68 q4 1 7 1q158 0 158 -197q0 -25 -3 -53l-323 -5zM179 373l37 35l367 1v-180q-32 -41 -140 -41h-27q-131 6 -237 185zM262 1169q-2 -9 -2 -18q0 -55 54 -100q62 -52 110 -57h15q39 0 69 19q36 24 82 82q40 49 40 93q0 8 -2 15q-8 51 -58 87t-88 42q-15 2 -29 2q-20 0 -37 -6 q-27 -9 -85.5 -51t-68.5 -108zM340 1211q8 37 51 48q10 3 21 3q34 0 72 -29q50 -37 58 -83q2 -11 2 -21q0 -29 -18 -45q-19 -17 -55 -17q-7 0 -15 1q-46 4 -84 55q-33 43 -33 76q0 6 1 12z" />
<glyph unicode="&#xe6;" horiz-adv-x="1432" d="M32 287q-1 -11 -1 -23q0 -108 89 -186q93 -82 184 -82h9q96 4 164 46t134 119q66 -138 228 -166q48 -6 92 -6q169 0 288 86q149 107 195 203l-30 24q-169 -116 -291 -116q-24 0 -45 4q-135 27 -156 86l247 182q196 121 196 252q0 10 -1 20q-17 142 -186 175q-28 5 -56 5 q-139 0 -269 -140q3 26 -85 77.5t-235 57.5h-16q-140 0 -287 -97q-99 -65 -99 -158q0 -53 33 -115l223 130q-35 53 -35 88q0 66 121 69h6q158 0 158 -197q0 -25 -3 -53l-323 -5zM199 373l37 35l367 1v-180q-32 -41 -140 -41h-27q-131 6 -237 185zM824 449q3 45 3 93v48 q-1 3 -1 6q0 69 52 120q28 27 63 27q36 0 81 -27q77 -47 77 -120q0 -11 -2 -24q-14 -89 -255 -242q-19 42 -19 95q0 12 1 24z" />
<glyph unicode="&#xe7;" horiz-adv-x="777" d="M111 149q66 -81 134 -117q52 -26 118 -33l-52 -156l24 -23q24 31 63 31q12 0 26 -3q53 -11 53 -62v-7q-4 -57 -96 -161l27 -17q170 135 177 202q1 10 1 20q0 53 -33 86q-38 37 -86 37q-3 0 -6 -1q-53 -2 -74 -17l25 69q92 1 190 91q99 92 164 188l-32 28 q-25 -33 -65 -69.5t-103 -37.5h-2q-63 0 -136 49q-184 103 -184 297q0 41 8 87q21 84 99 84q24 0 53 -8q107 -40 148 -166l196 154q-3 87 -65.5 136.5t-123.5 63.5q-23 5 -46 5q-36 0 -71 -13q-56 -23 -105 -54.5t-101 -73.5q-217 -167 -217 -355q0 -123 92 -254z" />
<glyph unicode="&#xe8;" horiz-adv-x="767" d="M36 509q-15 -63 -15 -121q0 -95 39 -181q61 -140 228 -199q40 -13 80 -13q99 0 203 78q147 109 193 205l-30 24q-151 -104 -256 -104q-35 0 -66 12q-119 47 -140 106l217 142q192 119 192 244q0 13 -2 25q-21 138 -177 162q-26 4 -51 4q-128 0 -241 -101 q-136 -121 -174 -283zM197 590q-1 3 -1 6q0 69 53 121q27 26 62 26q36 0 81 -27q77 -47 77 -120q0 -11 -2 -23q-14 -90 -225 -203q-23 51 -33 99t-12 121zM225 1218q172 -187 260 -187q5 0 10 1l137 154q-14 -2 -29 -2q-115 0 -261 155z" />
<glyph unicode="&#xe9;" horiz-adv-x="760" d="M26 509q-15 -63 -15 -121q0 -95 39 -181q61 -140 228 -199q40 -13 80 -13q99 0 203 78q147 109 193 205l-30 24q-151 -104 -256 -104q-35 0 -66 12q-119 47 -140 106l217 142q192 119 192 244q0 13 -2 25q-21 138 -177 162q-26 4 -51 4q-128 0 -241 -101 q-136 -121 -174 -283zM187 590q-1 3 -1 6q0 69 53 121q27 26 62 26q36 0 81 -27q77 -47 77 -120q0 -11 -2 -23q-14 -90 -225 -203q-23 51 -33 99t-12 121zM274 1002l32 -48l259 159q59 50 59 124q0 49 -26 109l-231 -155q36 -30 36 -62q0 -60 -129 -127z" />
<glyph unicode="&#xea;" horiz-adv-x="765" d="M26 509q-15 -63 -15 -121q0 -95 39 -181q61 -140 228 -199q40 -13 80 -13q99 0 203 78q147 109 193 205l-30 24q-151 -104 -256 -104q-35 0 -66 12q-119 47 -140 106l217 142q192 119 192 244q0 13 -2 25q-21 138 -177 162q-26 4 -51 4q-128 0 -241 -101 q-136 -121 -174 -283zM187 590q-1 3 -1 6q0 69 53 121q27 26 62 26q36 0 81 -27q77 -47 77 -120q0 -11 -2 -23q-14 -90 -225 -203q-23 51 -33 99t-12 121zM195 1089l271 239q76 -160 208 -178l-111 -132q-139 6 -183 153l-150 -121z" />
<glyph unicode="&#xeb;" horiz-adv-x="776" d="M26 509q-15 -63 -15 -121q0 -95 39 -181q61 -140 228 -199q40 -13 80 -13q99 0 203 78q147 109 193 205l-30 24q-151 -104 -256 -104q-35 0 -66 12q-119 47 -140 106l217 142q192 119 192 244q0 13 -2 25q-21 138 -177 162q-26 4 -51 4q-128 0 -241 -101 q-136 -121 -174 -283zM83 1159q109 -19 115 -160l187 149v12q0 122 -120 166zM187 590q-1 3 -1 6q0 69 53 121q27 26 62 26q36 0 81 -27q77 -47 77 -120q0 -11 -2 -23q-14 -90 -225 -203q-23 51 -33 99t-12 121zM399 1155q109 -19 115 -160l187 149v12q0 122 -120 166z" />
<glyph unicode="&#xec;" horiz-adv-x="439" d="M-10 1218q172 -187 260 -187q5 0 10 1l137 154q-14 -2 -29 -2q-115 0 -261 155zM30 747l16 -28q13 7 24 7q39 0 39 -108q0 -47 -7 -114q-2 -130 -2 -219q0 -125 4 -168q7 -75 89 -124l199 186l1 26h-3q-52 0 -65 75q-8 53 -8 161q0 47 1 105q4 130 4 198v50 q-3 58 -55 117z" />
<glyph unicode="&#xed;" horiz-adv-x="431" d="M-4 1002l32 -48l259 159q59 50 59 124q0 49 -26 109l-231 -155q36 -30 36 -62q0 -60 -129 -127zM30 747l16 -28q13 7 24 7q39 0 39 -108q0 -47 -7 -114q-2 -130 -2 -219q0 -125 4 -168q7 -75 89 -124l199 186l1 26h-3q-52 0 -65 75q-8 53 -8 161q0 47 1 105q4 130 4 198 v50q-3 58 -55 117z" />
<glyph unicode="&#xee;" horiz-adv-x="433" d="M-13 1089l271 239q76 -160 208 -178l-111 -132q-139 6 -183 153l-150 -121zM30 747l16 -28q13 7 24 7q39 0 39 -108q0 -47 -7 -114q-2 -130 -2 -219q0 -125 4 -168q7 -75 89 -124l199 186l1 26h-3q-52 0 -65 75q-8 53 -8 161q0 47 1 105q4 130 4 198v50q-3 58 -55 117z " />
<glyph unicode="&#xef;" horiz-adv-x="505" d="M-33 1159q109 -19 115 -160l152 134q78 -23 84 -138l187 149v12q0 122 -120 166l-120 -93q-21 67 -116 97zM30 747l16 -28q13 7 24 7q39 0 39 -108q0 -47 -7 -114q-2 -130 -2 -219q0 -125 4 -168q7 -75 89 -124l199 186l1 26h-3q-52 0 -65 75q-8 53 -8 161q0 47 1 105 q4 130 4 198v50q-3 58 -55 117z" />
<glyph unicode="&#xf0;" horiz-adv-x="1051" d="M31 304q-5 43 -5 82q0 71 15 130q23 93 113.5 181.5t168.5 141.5t163 56h6q84 0 205 -77l-52 217q-319 -36 -344 -69l-12 11l107 152l207 29q-8 86 -84 163l194 167q123 -49 181 -276q245 63 326 114l27 -12l-111 -180l-202 -40q65 -245 65 -483v-34 q-5 -256 -175.5 -410.5t-354.5 -177.5q-33 -5 -64 -5q-142 0 -241 91q-120 109 -133 229zM222 432q64 -172 194 -254q66 -42 134 -42q65 0 132 40q78 45 78 219q0 132 -44 337l-181 -132q-46 122 -158 122q-53 0 -122 -28q-58 -54 -58 -138q0 -56 25 -124z" />
<glyph unicode="&#xf1;" horiz-adv-x="952" d="M29 736l23 -33q18 11 32 11q35 0 35 -78q0 -12 -1 -25q-4 -188 -4 -307q0 -155 7 -192q13 -67 97 -118l212 184v24q-10 -2 -18 -2q-52 0 -67 77q-11 56 -11 184q0 78 4 183q99 90 175 90q22 0 41 -8q89 -33 88 -243q-2 -125 -2 -210q0 -120 4 -161q7 -72 86 -125l208 186 l-5 23q-8 -2 -15 -2q-40 0 -54 78q-11 59 -11 164q0 61 4 139q1 26 1 50q0 95 -22 157q-28 77 -119 113q-44 18 -85 18q-44 0 -84 -20q-78 -38 -128.5 -80t-77.5 -73q1 13 1 25q0 103 -69 150zM257 1009l25 -32l53 71q32 25 68 25q52 0 114 -51q48 -40 85 -40q44 0 72 55 l107 166l-22 32l-44 -67q-24 -21 -55 -21q-50 0 -118 56q-42 35 -81 35q-60 0 -110 -84z" />
<glyph unicode="&#xf2;" horiz-adv-x="833" d="M38 343q19 -124 146 -239t203 -116h1q76 0 238 149q63 57 110.5 121t69.5 181q7 32 7 65q0 91 -45 195q-135 209 -337 209q-24 0 -48 -3q-168 -110 -237.5 -191.5t-97.5 -163.5q-17 -50 -17 -115q0 -43 7 -92zM205 629q15 102 111 102q16 0 34 -3q127 -20 201 -163 q56 -107 56 -216q0 -36 -7 -72q-16 -97 -80 -97q-31 0 -73 23q-129 70 -194 188q-51 94 -51 188q0 25 3 50zM235 1218q172 -187 260 -187q5 0 10 1l137 154q-14 -2 -29 -2q-115 0 -261 155z" />
<glyph unicode="&#xf3;" horiz-adv-x="836" d="M38 343q19 -124 146 -239t203 -116h1q76 0 238 149q63 57 110.5 121t69.5 181q7 32 7 65q0 91 -45 195q-135 209 -337 209q-24 0 -48 -3q-168 -110 -237.5 -191.5t-97.5 -163.5q-17 -50 -17 -115q0 -43 7 -92zM205 629q15 102 111 102q16 0 34 -3q127 -20 201 -163 q56 -107 56 -216q0 -36 -7 -72q-16 -97 -80 -97q-31 0 -73 23q-129 70 -194 188q-51 94 -51 188q0 25 3 50zM254 1012l32 -48l259 159q59 50 59 124q0 49 -26 109l-231 -155q36 -30 36 -62q0 -60 -129 -127z" />
<glyph unicode="&#xf4;" horiz-adv-x="837" d="M38 343q19 -124 146 -239t203 -116h1q76 0 238 149q63 57 110.5 121t69.5 181q7 32 7 65q0 91 -45 195q-135 209 -337 209q-24 0 -48 -3q-168 -110 -237.5 -191.5t-97.5 -163.5q-17 -50 -17 -115q0 -43 7 -92zM205 629q15 102 111 102q16 0 34 -3q127 -20 201 -163 q56 -107 56 -216q0 -36 -7 -72q-16 -97 -80 -97q-31 0 -73 23q-129 70 -194 188q-51 94 -51 188q0 25 3 50zM213 1089l271 239q76 -160 208 -178l-111 -132q-139 6 -183 153l-150 -121z" />
<glyph unicode="&#xf5;" horiz-adv-x="829" d="M38 343q19 -124 146 -239t203 -116h1q76 0 238 149q63 57 110.5 121t69.5 181q7 32 7 65q0 91 -45 195q-135 209 -337 209q-24 0 -48 -3q-168 -110 -237.5 -191.5t-97.5 -163.5q-17 -50 -17 -115q0 -43 7 -92zM167 1009l25 -32l53 71q32 25 68 25q52 0 114 -51 q48 -40 85 -40q44 0 72 55l107 166l-22 32l-44 -67q-24 -21 -55 -21q-50 0 -118 56q-42 35 -81 35q-60 0 -110 -84zM205 629q15 102 111 102q16 0 34 -3q127 -20 201 -163q56 -107 56 -216q0 -36 -7 -72q-16 -97 -80 -97q-31 0 -73 23q-129 70 -194 188q-51 94 -51 188 q0 25 3 50z" />
<glyph unicode="&#xf6;" horiz-adv-x="825" d="M38 343q19 -124 146 -239t203 -116h1q76 0 238 149q63 57 110.5 121t69.5 181q7 32 7 65q0 91 -45 195q-135 209 -337 209q-24 0 -48 -3q-168 -110 -237.5 -191.5t-97.5 -163.5q-17 -50 -17 -115q0 -43 7 -92zM83 1159q109 -19 115 -160l187 149v12q0 122 -120 166z M205 629q15 102 111 102q16 0 34 -3q127 -20 201 -163q56 -107 56 -216q0 -36 -7 -72q-16 -97 -80 -97q-31 0 -73 23q-129 70 -194 188q-51 94 -51 188q0 25 3 50zM399 1155q109 -19 115 -160l187 149v12q0 122 -120 166z" />
<glyph unicode="&#xf7;" horiz-adv-x="915" d="M43 573l10 -14q30 28 501 28q74 0 158 -1l134 151l-21 9q-24 -27 -442 -27q-89 0 -195 1zM289 430q72 -61 110 -132q132 88 148 110q6 9 6 23q0 21 -15 52q-24 52 -93 73zM298 888q72 -61 110 -132q132 88 148 110q6 9 6 23q0 21 -14 52q-24 52 -94 73z" />
<glyph unicode="&#xf8;" horiz-adv-x="851" d="M-25 -229l214 347q-113 109 -130 225q-8 49 -8 92q0 65 17 115q28 82 97.5 163.5t237.5 191.5q24 3 48 3q85 0 158 -37l110 220l178 120l42 3l-240 -407q48 -44 89 -108q45 -104 45 -195q0 -33 -6 -65q-23 -117 -70.5 -181t-110.5 -121q-162 -148 -239 -148 q-54 0 -132 57l-74 -143q-119 -72 -181 -154zM226 629q-4 -25 -4 -50q0 -94 51 -187q18 -33 40 -62l186 334q-55 52 -129 64q-18 3 -34 3q-96 0 -110 -102zM387 256q36 -29 80 -53q42 -23 73 -23q64 0 81 98q6 35 6 71q0 109 -56 216q-3 5 -5 10z" />
<glyph unicode="&#xf9;" horiz-adv-x="830" d="M-34 714l20 -26l58 54q35 -4 35 -109q0 -18 -1 -39l-1 -300q0 -150 83.5 -226t180.5 -81l183 186q21 -160 152 -178l188 188l-24 30l-59 -53q-73 4 -73 136q0 13 1 28v410q-3 148 -119 168l-189 -186l20 -20l58 49q38 -12 38 -101q0 -22 -2 -49v-375l-93 -79 q-155 12 -155 217v5l1 367q1 146 -112 168zM213 1218q172 -187 260 -187q5 0 10 1l137 154q-14 -2 -29 -2q-115 0 -261 155z" />
<glyph unicode="&#xfa;" horiz-adv-x="839" d="M-31 714l20 -26l58 54q35 -4 35 -109q0 -18 -1 -39l-1 -300q0 -150 83.5 -226t180.5 -81l183 186q21 -160 152 -178l188 188l-24 30l-59 -53q-73 4 -73 136q0 13 1 28v410q-3 148 -119 168l-189 -186l20 -20l58 49q38 -12 38 -101q0 -22 -2 -49v-375l-93 -79 q-155 12 -155 217v5l1 367q1 146 -112 168zM246 993l23 -39l259 159q59 50 59 124q0 49 -26 109l-231 -155q38 -31 38 -65q0 -62 -122 -133z" />
<glyph unicode="&#xfb;" horiz-adv-x="838" d="M-29 714l20 -26l58 54q35 -4 35 -109q0 -18 -1 -39l-1 -300q0 -150 83.5 -226t180.5 -81l183 186q21 -160 152 -178l188 188l-24 30l-59 -53q-73 4 -73 136q0 13 1 28v410q-3 148 -119 168l-189 -186l20 -20l58 49q38 -12 38 -101q0 -22 -2 -49v-375l-93 -79 q-155 12 -155 217v5l1 367q1 146 -112 168zM185 1089l271 239q76 -160 208 -178l-111 -132q-139 6 -183 153l-150 -121z" />
<glyph unicode="&#xfc;" horiz-adv-x="824" d="M-29 714l20 -26l58 54q35 -4 35 -109q0 -18 -1 -39l-1 -300q0 -150 83.5 -226t180.5 -81l183 186q21 -160 152 -178l188 188l-24 30l-59 -53q-73 4 -73 136q0 13 1 28v410q-3 148 -119 168l-189 -186l20 -20l58 49q38 -12 38 -101q0 -22 -2 -49v-375l-93 -79 q-155 12 -155 217v5l1 367q1 146 -112 168zM72 1159q109 -19 115 -160l187 149v12q0 122 -120 166zM388 1155q109 -19 115 -160l187 149v12q0 122 -120 166z" />
<glyph unicode="&#xfd;" horiz-adv-x="799" d="M-28 680l20 -37l62 59q11 5 20 5q40 0 42 -111v-321q15 -215 231 -287q137 77 235 189v-115q1 -27 1 -51q0 -226 -124 -226q-140 0 -246 131l-165 -186q125 -105 248 -105q109 0 216 82q229 175 263 396v637q-20 146 -124 168l-217 -214l23 -32l64 61h4q49 0 49 -113 q0 -13 -1 -29v-317q-48 -76 -129 -76q-9 0 -18 1q-94 9 -111 179l1 368q1 146 -117 168zM266 1002l32 -48l259 159q59 50 59 124q0 49 -26 109l-231 -155q36 -30 36 -62q0 -60 -129 -127z" />
<glyph unicode="&#xfe;" horiz-adv-x="913" d="M28 1284l187 141q19 -5 48 -72q21 -48 21 -342q0 -112 -3 -259q125 154 267 154q23 0 46 -5q168 -29 226 -154q40 -89 40 -193q0 -44 -7 -91q-25 -159 -122 -260t-206 -177q-45 -28 -95 -28q-106 0 -153 70v-57q0 -69 -2 -135v-8q0 -82 51 -82h2l-1 -26l-199 -186 q-62 49 -69 124q-4 45 -4 184q0 89 1 217q5 327 13 742q1 58 1 109q0 310 -42 334zM287 666q-8 -95 -8 -172q0 -214 59 -287q50 -61 127 -61q47 0 105 23q59 147 59 271q0 22 -1 44q-13 141 -84 196q-59 45 -122 45q-14 0 -28 -2q-77 -12 -107 -57z" />
<glyph unicode="&#xff;" horiz-adv-x="806" d="M-33 680l20 -37l62 59q11 5 20 5q40 0 42 -111v-321q15 -215 231 -287q137 77 235 189v-115q1 -27 1 -51q0 -226 -124 -226q-140 0 -246 131l-165 -186q125 -105 248 -105q109 0 217 82q228 175 262 396v637q-20 146 -124 168l-217 -214l23 -32l64 61h4q49 0 49 -113 q0 -13 -1 -29v-317q-48 -76 -129 -76q-9 0 -18 1q-94 9 -111 179l1 368q1 146 -117 168zM64 1159q109 -19 115 -160l187 149v12q0 122 -120 166zM380 1155q109 -19 115 -160l187 149v12q0 122 -120 166z" />
<glyph unicode="&#x152;" horiz-adv-x="1659" d="M49 498q22 -178 168 -344q147 -166 235 -166t303 249q54 -178 426 -243q392 205 447 409q13 47 13 89q0 141 -144 231l-185 -235q126 -100 126 -178q0 -14 -5 -28q-24 -79 -136 -79q-12 0 -26 1q-135 10 -262 136q-76 75 -76 173q0 66 34 141q57 -23 136 -31l197 208 l-18 22q-228 0 -287 58q-50 51 -50 127q0 13 1 26q10 94 105 113q30 6 59 6q64 0 124 -29q77 -37 77 -99q0 -9 -2 -19l22 -15l169 183q-15 41 -75.5 87t-139.5 48q-10 1 -20 1q-67 0 -123 -15q-63 -17 -163.5 -90.5t-109.5 -150.5q-131 227 -353 227q-33 0 -68 -5 q-194 -157 -274.5 -274.5t-113.5 -236.5q-19 -72 -19 -165q0 -61 8 -132zM242 910q20 161 170 161h16q165 -9 253 -219q57 -134 57 -274q0 -79 -18 -158q-37 -168 -140 -168q-35 0 -78 19q-168 75 -224 271q-41 144 -41 274q0 48 5 94z" />
<glyph unicode="&#x153;" horiz-adv-x="1347" d="M34 462q-3 -26 -3 -51q0 -147 103 -268q120 -143 211 -154q13 -2 26 -2q74 0 133 54q69 63 139 182q58 -156 225 -215q40 -13 80 -13q99 0 203 78q147 109 193 205l-30 24q-151 -104 -256 -104q-35 0 -65 12q-120 47 -141 106l217 142q192 119 192 244q0 13 -2 25 q-21 138 -190 174q-22 5 -45 5q-152 0 -332 -211q-1 22 -83 104t-155 98q-29 6 -54 6q-40 0 -71 -15q-51 -25 -163 -137.5t-132 -288.5zM169 607q15 109 105 144q21 8 43 8q72 0 153 -87q106 -113 121 -248q4 -33 4 -61q0 -89 -37 -133q-40 -49 -115 -49q-14 0 -30 1 q-98 12 -179 164q-68 128 -68 225q0 18 3 36zM777 590q-1 3 -1 6q0 69 52 120q28 27 63 27q36 0 81 -27q77 -47 77 -120q0 -11 -2 -24q-14 -89 -225 -202q-23 51 -33 99t-12 121z" />
<glyph unicode="&#x178;" horiz-adv-x="938" d="M-3 1138l26 -29q17 20 41 20q18 0 38 -10l263 -424l4 -473q-1 -13 -1 -25q0 -146 101 -208l212 154l-10 32q-5 -1 -9 -1q-46 0 -54 78v512q296 257 314 430q2 17 2 32q0 149 -160 218l-177 -173q112 -81 116 -211v-7q0 -125 -138 -210l-219 342q-84 133 -127 133 q-4 0 -8 -1zM126 1559q109 -19 115 -160l187 149v12q0 122 -120 166zM442 1555q109 -19 115 -160l187 149v12q0 122 -120 166z" />
<glyph unicode="&#x2c6;" horiz-adv-x="518" d="M32 1499l271 239q76 -160 208 -178l-111 -132q-139 6 -183 153l-150 -121z" />
<glyph unicode="&#x2dc;" horiz-adv-x="566" d="M30 1489l25 -32l53 71q32 25 68 25q52 0 114 -51q48 -40 85 -40q44 0 72 55l107 166l-22 32l-44 -67q-24 -21 -55 -21q-50 0 -118 56q-42 35 -81 35q-60 0 -110 -84z" />
<glyph unicode="&#x2013;" horiz-adv-x="952" d="M23 572l10 -15q33 34 772 24l129 162l-21 9q-27 -35 -751 -22z" />
<glyph unicode="&#x2014;" horiz-adv-x="1451" d="M23 562l10 -15q33 34 1272 24l129 162l-21 9q-27 -35 -1251 -22z" />
<glyph unicode="&#x2018;" horiz-adv-x="368" d="M142 911h20l192 148q4 8 4 15q0 9 -8 17q-105 88 -105 166q0 49 41 94q9 30 -24 36q-243 -117 -243 -260q0 -102 123 -216z" />
<glyph unicode="&#x2019;" horiz-adv-x="358" d="M14 1236q-10 -19 4 -32q171 -143 64 -260q-9 -30 24 -36q416 201 120 476h-20z" />
<glyph unicode="&#x201c;" horiz-adv-x="667" d="M144 908h20l192 148q10 19 -4 32q-105 88 -105 166q0 49 41 94q9 30 -24 36q-243 -117 -243 -260q0 -102 123 -216zM444 908h20l192 148q4 8 4 15q0 9 -8 17q-105 88 -105 166q0 49 41 94q9 30 -24 36q-243 -117 -243 -260q0 -102 123 -216z" />
<glyph unicode="&#x201d;" horiz-adv-x="656" d="M14 1226q-4 -8 -4 -15q0 -9 8 -17q105 -88 105 -166q0 -49 -41 -94q-9 -30 24 -36q243 117 243 260q0 102 -123 216h-20zM314 1226q-4 -8 -4 -15q0 -9 8 -17q105 -88 105 -166q0 -49 -41 -94q-9 -30 24 -36q243 117 243 260q0 102 -123 216h-20z" />
<glyph unicode="&#x2022;" horiz-adv-x="421" d="M0 459l129 12l-80 -72l20 -103l101 125l-9 -132l82 -42l-12 176l106 -131l20 99l-84 80l108 -1l37 89l-151 -19l73 83l-19 81l-89 -108l9 155l-73 -45l4 -113l-87 115l-22 -80l71 -88h-99z" />
<glyph unicode="&#x2026;" horiz-adv-x="1063" d="M4 131q109 -19 115 -160l187 149v12q0 122 -120 166zM374 131q109 -19 115 -160l187 149v12q0 122 -120 166zM744 131q109 -19 115 -160l187 149v12q0 122 -120 166z" />
<glyph unicode="&#x2039;" horiz-adv-x="366" d="M2 477l209 -473l130 167l-169 376l176 372l-65 131z" />
<glyph unicode="&#x203a;" horiz-adv-x="422" d="M2 135l65 -131l281 573l-209 473l-130 -167l169 -376z" />
<glyph unicode="&#x20ac;" horiz-adv-x="1098" d="M19 702l10 -15q16 17 173 24q-4 -27 -6 -52h-38l-139 -158l10 -15q16 17 168 24q8 -63 27 -118q50 -136 137.5 -235.5t214.5 -141.5q59 -19 117 -19q65 0 128 24q119 47 250 221l-42 41q-77 -85 -175 -85q-78 0 -170 53q-166 96 -240 265q49 1 103 1t114 -1l129 162 l-21 9q-21 -27 -370 -28q-7 29 -11 58h127h146l129 162l-21 9q-21 -28 -389 -28q5 80 32 147q66 159 215 162h12q139 0 184 -70q26 -42 26 -76q0 -26 -15 -47l31 -16l180 151q6 15 6 31q0 48 -50 109q-67 83 -214 87h-17q-137 0 -233 -54q-102 -57 -205 -219 q-62 -98 -96 -205q-38 0 -78 1z" />
<glyph unicode="&#x2122;" horiz-adv-x="1214" d="M42 1289l10 -8q20 15 113 15q35 0 81 -2q-26 -27 -46 -50l1 -405q18 -72 81 -85l83 73l-8 16h-1q-36 0 -45 72l2 380h103l88 82l-9 10h-384zM471 1260l12 -22q9 8 16 8q18 0 18 -55v-17q-2 -129 -2 -211q0 -106 3 -132q7 -46 50 -80l107 103v16q-4 -1 -8 -1q-33 0 -38 65 q-2 35 -2 97q0 67 3 166q51 62 90 62q11 0 21 -5q45 -23 45 -161v-6q-1 -75 -1 -130q0 -95 2 -126q4 -49 45 -85l103 105l-3 17h-3q-29 0 -29 216q0 56 2 127q46 49 83 49q12 0 24 -6q45 -23 45 -167q-1 -89 -1 -148q0 -80 2 -108q4 -49 45 -85l105 109l-2 16q-4 -1 -7 -1 q-21 0 -29 62q-4 43 -4 110q0 48 2 108q1 16 1 30q0 67 -12 111q-14 54 -61 78q-23 12 -44 12q-22 0 -43 -13q-40 -26 -66 -55t-43 -53q-25 85 -72 109q-23 12 -44 12q-22 0 -43 -13q-40 -26 -66 -55t-40 -50q1 9 1 18q0 71 -36 102z" />
<glyph unicode="&#xe000;" horiz-adv-x="900" d="M0 900h900v-900h-900v900z" />
<glyph unicode="&#xfb01;" horiz-adv-x="1057" d="M18 595l32 -30q61 64 148 70l-5 -415q1 -6 1 -12q0 -68 -132 -177l18 -33h286l160 191l-10 19l-209 -4q80 58 80 276q0 68 -8 150l75 2l164 208l-24 14l-217 5l-39 293v12q0 74 55 74q16 0 36 -6q70 -21 70 -101q0 -30 -10 -69l18 -20l197 212q-26 158 -142 158 q-15 0 -30 -2q-144 -22 -220.5 -102.5t-156.5 -273.5l29 -214zM648 1143q93 -64 141 -154q168 112 189 140q8 11 8 28q0 26 -19 66q-31 66 -119 93zM663 747l16 -28q13 7 24 7q39 0 39 -108q0 -47 -7 -114q-2 -130 -2 -219q0 -125 4 -169q7 -74 89 -123l199 186l1 26h-3 q-52 0 -65 75q-8 53 -8 161q0 47 2 105q3 130 3 198q0 31 -1 50q-2 58 -54 117z" />
<glyph unicode="&#xfb02;" horiz-adv-x="1051" d="M18 595l32 -30q61 64 148 70l-5 -415q1 -6 1 -12q0 -68 -132 -177l18 -33h286l160 191l-10 19l-209 -4q80 58 80 276q0 68 -8 150l75 2l164 208l-24 14l-217 5l-39 293v12q0 74 55 74q16 0 36 -6q70 -21 70 -101q0 -30 -10 -69l18 -20l197 212q-26 158 -142 158 q-15 0 -30 -2q-144 -22 -220.5 -102.5t-156.5 -273.5l29 -214zM662 1238q25 -48 29 -131q-4 -360 -4 -593q0 -372 10 -416q16 -73 94 -118l256 184l-30 32q-13 -3 -24 -3q-49 0 -75 48q-25 44 -25 591q0 184 3 427q-13 82 -62 121z" />
<glyph unicode="&#xfb03;" horiz-adv-x="1690" d="M18 595l32 -30q61 64 148 70l-5 -415q1 -6 1 -12q0 -68 -132 -177l18 -33h286l160 191l-10 19l-209 -4q80 58 80 276q0 68 -8 150l75 2l164 208l-24 14l-217 5l-39 293v12q0 74 55 74q16 0 36 -6q70 -21 70 -101q0 -30 -10 -69l18 -20l197 212q-26 158 -142 158 q-15 0 -30 -2q-144 -22 -220.5 -102.5t-156.5 -273.5l29 -214zM651 595l32 -30q61 64 148 70l-5 -415q1 -6 1 -12q0 -68 -132 -177l18 -33h286l160 191l-10 19l-209 -4q80 58 80 276q0 68 -8 150l75 2l164 208l-24 14l-217 5l-39 293v12q0 74 55 74q16 0 36 -6 q70 -21 70 -101q0 -30 -10 -69l18 -20l197 212q-26 158 -142 158q-15 0 -31 -2q-143 -22 -219.5 -102.5t-156.5 -273.5l29 -214zM1281 1143q93 -64 141 -154q168 112 188 140q9 11 9 28q0 26 -19 66q-31 66 -119 93zM1296 747l16 -28q13 7 24 7q39 0 39 -108q0 -47 -7 -114 q-2 -130 -2 -219q0 -125 4 -169q7 -74 89 -123l199 186l1 26h-3q-52 0 -64 75q-9 53 -9 161q0 47 1 105q4 130 4 198v50q-3 58 -55 117z" />
<glyph unicode="&#xfb04;" horiz-adv-x="1684" d="M18 595l32 -30q61 64 148 70l-5 -415q1 -6 1 -12q0 -68 -132 -177l18 -33h286l160 191l-10 19l-209 -4q80 58 80 276q0 68 -8 150l75 2l164 208l-24 14l-217 5l-39 293v12q0 74 55 74q16 0 36 -6q70 -21 70 -101q0 -30 -10 -69l18 -20l197 212q-26 158 -142 158 q-15 0 -30 -2q-144 -22 -220.5 -102.5t-156.5 -273.5l29 -214zM651 595l32 -30q61 64 148 70l-5 -415q1 -6 1 -12q0 -68 -132 -177l18 -33h286l160 191l-10 19l-209 -4q80 58 80 276q0 68 -8 150l75 2l164 208l-24 14l-217 5l-39 293v12q0 74 55 74q16 0 36 -6 q70 -21 70 -101q0 -30 -10 -69l18 -20l197 212q-26 158 -142 158q-15 0 -31 -2q-143 -22 -219.5 -102.5t-156.5 -273.5l29 -214zM1295 1238q25 -48 29 -131q-4 -360 -4 -593q0 -372 10 -416q16 -73 94 -118l256 184l-30 32q-13 -3 -24 -3q-49 0 -76 48q-24 44 -24 591 q0 184 3 427q-13 82 -62 121z" />
</font>
</defs>
</svg>
